<svg width="221" height="93" viewBox="0 0 221 93" fill="none" xmlns="http://www.w3.org/2000/svg">
<path d="M5.52557 16H0.525568L2.94034 1.45455H7.89773C9.34186 1.45455 10.5398 1.75284 11.4915 2.34943C12.4432 2.94602 13.1108 3.7983 13.4943 4.90625C13.8826 6.00947 13.9489 7.32576 13.6932 8.85511C13.447 10.3513 12.9616 11.6321 12.2372 12.6974C11.5128 13.7628 10.5824 14.5795 9.44602 15.1477C8.30966 15.7159 7.00284 16 5.52557 16ZM3.53693 13.7202H5.66051C6.66903 13.7202 7.54735 13.5284 8.29545 13.1449C9.0483 12.7566 9.66146 12.1813 10.1349 11.419C10.6132 10.652 10.9446 9.70028 11.1293 8.56392C11.3139 7.47491 11.3021 6.57528 11.0938 5.86506C10.8854 5.15009 10.4806 4.61742 9.87926 4.26705C9.28267 3.91193 8.49195 3.73438 7.5071 3.73438H5.19176L3.53693 13.7202ZM19.7053 16.2131C18.6115 16.2131 17.7071 15.9858 16.9922 15.5312C16.2772 15.072 15.7753 14.4233 15.4865 13.5852C15.2024 12.7424 15.1551 11.7505 15.3445 10.6094C15.5291 9.48722 15.9055 8.50237 16.4737 7.65483C17.0419 6.80256 17.7521 6.13968 18.6044 5.66619C19.4614 5.18797 20.4084 4.94886 21.4453 4.94886C22.1177 4.94886 22.7356 5.05777 23.299 5.27557C23.8625 5.48864 24.3383 5.82008 24.7266 6.26989C25.1148 6.7197 25.3823 7.29261 25.5291 7.98864C25.6759 8.67992 25.6688 9.50379 25.5078 10.4602L25.3871 11.2486H16.4382L16.7152 9.51562H23.1925C23.2777 9.0232 23.2493 8.58523 23.1072 8.2017C22.9652 7.81345 22.7285 7.50805 22.397 7.28551C22.0656 7.06297 21.6513 6.9517 21.1541 6.9517C20.6475 6.9517 20.174 7.08191 19.7337 7.34233C19.2981 7.59801 18.9311 7.92945 18.6328 8.33665C18.3345 8.74384 18.1451 9.17235 18.0646 9.62216L17.7734 11.2841C17.6693 11.9659 17.6929 12.5223 17.8445 12.9531C17.996 13.384 18.2611 13.7012 18.6399 13.9048C19.0187 14.1084 19.4969 14.2102 20.0746 14.2102C20.4534 14.2102 20.8037 14.1581 21.1257 14.054C21.4477 13.9498 21.7341 13.7936 21.9851 13.5852C22.2408 13.3722 22.4538 13.1117 22.6243 12.804L24.9751 13.0739C24.7147 13.7083 24.3336 14.2623 23.8317 14.7358C23.3298 15.2045 22.7285 15.5691 22.0277 15.8295C21.3317 16.0852 20.5575 16.2131 19.7053 16.2131ZM36.7294 7.97443L34.3643 8.23011C34.3407 7.98864 34.2673 7.76373 34.1442 7.5554C34.0211 7.34706 33.8364 7.18134 33.5902 7.05824C33.3487 6.9304 33.0362 6.86648 32.6527 6.86648C32.094 6.86648 31.6039 6.99195 31.1825 7.2429C30.7611 7.49384 30.522 7.81581 30.4652 8.20881C30.4131 8.50237 30.4841 8.74148 30.6783 8.92614C30.8724 9.1108 31.2322 9.26705 31.7578 9.39489L33.5618 9.79261C34.5561 10.0152 35.2711 10.375 35.7067 10.8722C36.147 11.3693 36.3009 12.0204 36.1683 12.8253C36.0547 13.4976 35.7611 14.0895 35.2876 14.6009C34.8142 15.1075 34.2081 15.5028 33.4695 15.7869C32.7356 16.071 31.9212 16.2131 31.0263 16.2131C29.6674 16.2131 28.621 15.9313 27.8871 15.3679C27.1579 14.7997 26.7957 14.0185 26.8004 13.0241L29.3288 12.7827C29.3572 13.2751 29.5301 13.6468 29.8473 13.8977C30.1645 14.1439 30.6049 14.2694 31.1683 14.2741C31.8028 14.2789 32.3378 14.1463 32.7734 13.8764C33.2138 13.6018 33.4624 13.268 33.5192 12.875C33.5665 12.5814 33.4931 12.3423 33.299 12.1577C33.1096 11.973 32.7711 11.8262 32.2834 11.7173L30.4936 11.3267C29.4804 11.1042 28.7583 10.7277 28.3274 10.1974C27.9013 9.66241 27.7569 8.98769 27.8942 8.1733C28.0078 7.51042 28.2848 6.93987 28.7251 6.46165C29.1702 5.97869 29.7408 5.60701 30.4368 5.34659C31.1328 5.08144 31.9117 4.94886 32.7734 4.94886C34.0708 4.94886 35.0485 5.22112 35.7067 5.76562C36.3648 6.31013 36.7057 7.0464 36.7294 7.97443ZM42.4858 16.2131C41.3968 16.2131 40.5019 15.974 39.8011 15.4957C39.1004 15.0175 38.6103 14.357 38.331 13.5142C38.0563 12.6667 38.0114 11.6913 38.196 10.5881C38.3759 9.48011 38.7476 8.50237 39.3111 7.65483C39.8793 6.80256 40.5942 6.13968 41.456 5.66619C42.3177 5.18797 43.2813 4.94886 44.3466 4.94886C45.232 4.94886 45.9872 5.11222 46.6122 5.43892C47.242 5.76089 47.7107 6.2178 48.0185 6.80966C48.331 7.39678 48.4517 8.08333 48.3807 8.86932H45.9162C45.9067 8.34375 45.7434 7.90578 45.4261 7.5554C45.1089 7.20028 44.6449 7.02273 44.0341 7.02273C43.5038 7.02273 43.0161 7.16477 42.571 7.44886C42.1259 7.72822 41.7495 8.13068 41.4418 8.65625C41.134 9.18182 40.9209 9.81155 40.8026 10.5455C40.6795 11.2888 40.6818 11.928 40.8097 12.4631C40.9422 12.9934 41.1813 13.4029 41.527 13.6918C41.8774 13.9759 42.3201 14.1179 42.8551 14.1179C43.2339 14.1179 43.5866 14.0469 43.9134 13.9048C44.2401 13.758 44.5265 13.5473 44.7727 13.2727C45.0237 12.9981 45.2202 12.6643 45.3622 12.2713H47.8196C47.6255 13.0431 47.2798 13.7273 46.7827 14.3239C46.2902 14.9157 45.6795 15.3797 44.9503 15.7159C44.2211 16.0473 43.3996 16.2131 42.4858 16.2131ZM49.2987 16L51.1168 5.09091H53.6097L53.3043 6.90909H53.418C53.7163 6.27936 54.1377 5.79403 54.6822 5.45312C55.2314 5.10748 55.8185 4.93466 56.4435 4.93466C56.5903 4.93466 56.7489 4.94176 56.9194 4.95597C57.0898 4.96544 57.2366 4.98201 57.3597 5.00568L56.962 7.37074C56.8531 7.33286 56.6826 7.29972 56.4506 7.27131C56.2234 7.23816 55.9985 7.22159 55.7759 7.22159C55.3072 7.22159 54.8716 7.32339 54.4691 7.52699C54.0714 7.72585 53.7352 8.00284 53.4606 8.35795C53.186 8.71307 53.0084 9.12263 52.9279 9.58665L51.8697 16H49.2987ZM57.2479 16L59.0661 5.09091H61.6371L59.8189 16H57.2479ZM60.728 3.52841C60.3161 3.52841 59.9751 3.3911 59.7053 3.11648C59.4354 2.84186 59.317 2.51278 59.3501 2.12926C59.3833 1.74574 59.5561 1.41667 59.8686 1.14205C60.1858 0.867424 60.5481 0.730114 60.9553 0.730114C61.3672 0.730114 61.7057 0.867424 61.9709 1.14205C62.2408 1.41667 62.3591 1.74574 62.326 2.12926C62.2976 2.51278 62.1248 2.84186 61.8075 3.11648C61.495 3.3911 61.1352 3.52841 60.728 3.52841ZM61.788 20.0909L64.3022 5.09091H66.8306L66.5394 6.89489H66.6886C66.859 6.62973 67.0887 6.34801 67.3775 6.04972C67.671 5.74669 68.0427 5.48864 68.4925 5.27557C68.9424 5.05777 69.4892 4.94886 70.1332 4.94886C70.9712 4.94886 71.6933 5.1643 72.2994 5.59517C72.9054 6.02131 73.3387 6.65341 73.5991 7.49148C73.8642 8.32481 73.8974 9.34754 73.6985 10.5597C73.4996 11.7576 73.1327 12.7756 72.5977 13.6136C72.0626 14.4517 71.421 15.0909 70.6729 15.5312C69.9248 15.9716 69.1223 16.1918 68.2653 16.1918C67.6403 16.1918 67.136 16.0876 66.7525 15.8793C66.3737 15.6709 66.0872 15.42 65.8931 15.1264C65.699 14.8281 65.5546 14.5464 65.4599 14.2812H65.3462L64.3803 20.0909H61.788ZM65.9144 10.5455C65.8008 11.2509 65.7984 11.8688 65.9073 12.3991C66.021 12.9295 66.2459 13.3437 66.582 13.642C66.9182 13.9356 67.3585 14.0824 67.9031 14.0824C68.4712 14.0824 68.9684 13.9309 69.3945 13.6278C69.8254 13.3201 70.1829 12.901 70.467 12.3707C70.7558 11.8357 70.9594 11.2273 71.0778 10.5455C71.1867 9.86837 71.1867 9.26705 71.0778 8.74148C70.9689 8.21591 70.7487 7.80398 70.4173 7.50568C70.0858 7.20739 69.636 7.05824 69.0678 7.05824C68.5138 7.05824 68.0191 7.20265 67.5835 7.49148C67.1526 7.7803 66.7951 8.18513 66.511 8.70597C66.2269 9.2268 66.0281 9.83996 65.9144 10.5455ZM79.7124 16.2131C78.6233 16.2131 77.7285 15.974 77.0277 15.4957C76.3269 15.0175 75.8369 14.357 75.5575 13.5142C75.2829 12.6667 75.2379 11.6913 75.4226 10.5881C75.6025 9.48011 75.9742 8.50237 76.5376 7.65483C77.1058 6.80256 77.8208 6.13968 78.6825 5.66619C79.5443 5.18797 80.5078 4.94886 81.5732 4.94886C82.4586 4.94886 83.2138 5.11222 83.8388 5.43892C84.4685 5.76089 84.9373 6.2178 85.245 6.80966C85.5575 7.39678 85.6783 8.08333 85.6072 8.86932H83.1428C83.1333 8.34375 82.9699 7.90578 82.6527 7.5554C82.3355 7.20028 81.8714 7.02273 81.2607 7.02273C80.7304 7.02273 80.2427 7.16477 79.7976 7.44886C79.3525 7.72822 78.9761 8.13068 78.6683 8.65625C78.3606 9.18182 78.1475 9.81155 78.0291 10.5455C77.906 11.2888 77.9084 11.928 78.0362 12.4631C78.1688 12.9934 78.4079 13.4029 78.7536 13.6918C79.1039 13.9759 79.5466 14.1179 80.0817 14.1179C80.4605 14.1179 80.8132 14.0469 81.1399 13.9048C81.4666 13.758 81.7531 13.5473 81.9993 13.2727C82.2502 12.9981 82.4467 12.6643 82.5888 12.2713H85.0462C84.852 13.0431 84.5064 13.7273 84.0092 14.3239C83.5168 14.9157 82.906 15.3797 82.1768 15.7159C81.4477 16.0473 80.6262 16.2131 79.7124 16.2131ZM86.5252 16L88.3434 5.09091H90.9144L89.0962 16H86.5252ZM90.0053 3.52841C89.5934 3.52841 89.2525 3.3911 88.9826 3.11648C88.7127 2.84186 88.5943 2.51278 88.6275 2.12926C88.6606 1.74574 88.8335 1.41667 89.146 1.14205C89.4632 0.867424 89.8254 0.730114 90.2326 0.730114C90.6445 0.730114 90.9831 0.867424 91.2482 1.14205C91.5181 1.41667 91.6365 1.74574 91.6033 2.12926C91.5749 2.51278 91.4021 2.84186 91.0849 3.11648C90.7724 3.3911 90.4125 3.52841 90.0053 3.52841ZM96.527 16.2131C95.4522 16.2131 94.5573 15.9763 93.8423 15.5028C93.1321 15.0294 92.6326 14.3641 92.3438 13.5071C92.0549 12.6501 92.0028 11.6558 92.1875 10.5241C92.3722 9.40672 92.7415 8.42898 93.2955 7.59091C93.8542 6.75284 94.5573 6.10417 95.4048 5.64489C96.2571 5.18087 97.2112 4.94886 98.267 4.94886C99.3419 4.94886 100.234 5.18797 100.945 5.66619C101.655 6.13968 102.154 6.80492 102.443 7.66193C102.737 8.51894 102.791 9.51799 102.607 10.6591C102.427 11.7718 102.055 12.7448 101.491 13.5781C100.933 14.4115 100.23 15.0601 99.3821 15.5241C98.5346 15.9834 97.5829 16.2131 96.527 16.2131ZM96.7401 14.1534C97.3366 14.1534 97.8598 13.9924 98.3097 13.6705C98.7642 13.3437 99.1359 12.9058 99.4247 12.3565C99.7183 11.8026 99.9219 11.187 100.036 10.5099C100.14 9.85653 100.142 9.26468 100.043 8.73438C99.9432 8.19934 99.7301 7.77557 99.4034 7.46307C99.0814 7.14583 98.634 6.98722 98.0611 6.98722C97.4645 6.98722 96.9366 7.15294 96.4773 7.48438C96.0227 7.81108 95.651 8.25142 95.3622 8.8054C95.0734 9.35464 94.8745 9.9678 94.7656 10.6449C94.6567 11.2983 94.652 11.8902 94.7514 12.4205C94.8509 12.9508 95.0639 13.3722 95.3906 13.6847C95.7173 13.9972 96.1671 14.1534 96.7401 14.1534ZM97.5568 3.65625L99.6804 0.410511H102.195L99.4744 3.65625H97.5568ZM107.544 9.60795L106.493 16H103.915L105.733 5.09091H108.198L107.885 6.9446H108.02C108.361 6.33381 108.839 5.84848 109.455 5.48864C110.07 5.12879 110.788 4.94886 111.607 4.94886C112.35 4.94886 112.975 5.10985 113.482 5.43182C113.989 5.74905 114.348 6.21544 114.561 6.83097C114.775 7.44176 114.808 8.18276 114.661 9.05398L113.496 16H110.925L112.012 9.4517C112.135 8.72727 112.042 8.15909 111.735 7.74716C111.432 7.33049 110.944 7.12216 110.272 7.12216C109.822 7.12216 109.408 7.22159 109.029 7.42045C108.65 7.61458 108.33 7.89631 108.07 8.26562C107.814 8.63494 107.639 9.08239 107.544 9.60795ZM8.40199 31.669L8.05398 33.7855H1.51278L1.8608 31.669H8.40199ZM23.8761 30.3622H21.2624C21.2624 29.9266 21.1914 29.5407 21.0494 29.2045C20.9073 28.8636 20.7085 28.5748 20.4528 28.3381C20.1971 28.1013 19.8941 27.9238 19.5437 27.8054C19.1933 27.6823 18.805 27.6207 18.3789 27.6207C17.5645 27.6207 16.8069 27.8267 16.1062 28.2386C15.4054 28.6506 14.8112 29.2495 14.3235 30.0355C13.8358 30.8168 13.4973 31.7661 13.3079 32.8835C13.1327 33.9725 13.1493 34.884 13.3576 35.6179C13.5707 36.3518 13.94 36.9058 14.4656 37.2798C14.9911 37.6491 15.6303 37.8338 16.3832 37.8338C16.8424 37.8338 17.2828 37.777 17.7042 37.6634C18.1256 37.545 18.5138 37.3722 18.869 37.1449C19.2288 36.9129 19.5437 36.6312 19.8136 36.2997C20.0882 35.9683 20.3013 35.5919 20.4528 35.1705H23.1019C22.8841 35.8617 22.5645 36.5128 22.1431 37.1236C21.7217 37.7296 21.2151 38.2647 20.6232 38.7287C20.0314 39.188 19.3685 39.5478 18.6346 39.8082C17.9007 40.0687 17.11 40.1989 16.2624 40.1989C14.9603 40.1989 13.8453 39.8958 12.9173 39.2898C11.994 38.679 11.3311 37.8054 10.9286 36.669C10.5262 35.5279 10.4551 34.1619 10.7156 32.571C10.976 31.0227 11.4779 29.7041 12.2212 28.6151C12.9693 27.526 13.8808 26.6951 14.9556 26.1222C16.0352 25.5445 17.1976 25.2557 18.4428 25.2557C19.2667 25.2557 20.0148 25.3693 20.6871 25.5966C21.3642 25.8239 21.9442 26.1577 22.4272 26.598C22.9102 27.0336 23.2771 27.5687 23.5281 28.2031C23.7837 28.8329 23.8997 29.5526 23.8761 30.3622ZM29.3786 40.2131C28.3037 40.2131 27.4089 39.9763 26.6939 39.5028C25.9837 39.0294 25.4841 38.3641 25.1953 37.5071C24.9065 36.6501 24.8544 35.6558 25.0391 34.5241C25.2237 33.4067 25.593 32.429 26.147 31.5909C26.7057 30.7528 27.4089 30.1042 28.2564 29.6449C29.1087 29.1809 30.0627 28.9489 31.1186 28.9489C32.1934 28.9489 33.0859 29.188 33.7962 29.6662C34.5064 30.1397 35.0059 30.8049 35.2947 31.6619C35.5883 32.5189 35.6428 33.518 35.4581 34.6591C35.2782 35.7718 34.9065 36.7448 34.343 37.5781C33.7843 38.4115 33.0812 39.0601 32.2337 39.5241C31.3861 39.9834 30.4344 40.2131 29.3786 40.2131ZM29.5916 38.1534C30.1882 38.1534 30.7114 37.9924 31.1612 37.6705C31.6158 37.3437 31.9875 36.9058 32.2763 36.3565C32.5698 35.8026 32.7734 35.187 32.8871 34.5099C32.9912 33.8565 32.9936 33.2647 32.8942 32.7344C32.7947 32.1993 32.5817 31.7756 32.255 31.4631C31.933 31.1458 31.4856 30.9872 30.9126 30.9872C30.3161 30.9872 29.7881 31.1529 29.3288 31.4844C28.8743 31.8111 28.5026 32.2514 28.2138 32.8054C27.925 33.3546 27.7261 33.9678 27.6172 34.6449C27.5083 35.2983 27.5036 35.8902 27.603 36.4205C27.7024 36.9508 27.9155 37.3722 28.2422 37.6847C28.5689 37.9972 29.0187 38.1534 29.5916 38.1534ZM30.4084 27.6562L32.532 24.4105H35.0462L32.326 27.6562H30.4084ZM36.7667 40L38.5849 29.0909H41.0494L40.7369 30.9446H40.8718C41.2032 30.3196 41.6602 29.8319 42.2425 29.4815C42.8249 29.1264 43.4807 28.9489 44.2099 28.9489C44.9438 28.9489 45.5356 29.1288 45.9854 29.4886C46.44 29.8437 46.7193 30.3291 46.8235 30.9446H46.9371C47.2781 30.3338 47.7657 29.8485 48.4002 29.4886C49.0394 29.1288 49.7567 28.9489 50.5522 28.9489C51.5465 28.9489 52.3088 29.2661 52.8391 29.9006C53.3694 30.535 53.5328 31.4607 53.3292 32.6776L52.1076 40H49.5366L50.7013 33.0753C50.8055 32.3982 50.7013 31.9034 50.3888 31.5909C50.0811 31.2737 49.6668 31.1151 49.146 31.1151C48.5257 31.1151 48.0096 31.3068 47.5977 31.6903C47.1905 32.0739 46.9395 32.5758 46.8448 33.196L45.7013 40H43.18L44.359 32.9688C44.4442 32.4053 44.3448 31.9555 44.0607 31.6193C43.7814 31.2831 43.3694 31.1151 42.8249 31.1151C42.4556 31.1151 42.1029 31.2098 41.7667 31.3991C41.4305 31.5885 41.1441 31.8537 40.9073 32.1946C40.6753 32.5308 40.5238 32.9214 40.4528 33.3665L39.3448 40H36.7667ZM59.4957 40.2131C58.4209 40.2131 57.526 39.9763 56.8111 39.5028C56.1009 39.0294 55.6013 38.3641 55.3125 37.5071C55.0237 36.6501 54.9716 35.6558 55.1562 34.5241C55.3409 33.4067 55.7102 32.429 56.2642 31.5909C56.8229 30.7528 57.526 30.1042 58.3736 29.6449C59.2259 29.1809 60.1799 28.9489 61.2358 28.9489C62.3106 28.9489 63.2031 29.188 63.9134 29.6662C64.6236 30.1397 65.1231 30.8049 65.4119 31.6619C65.7055 32.5189 65.7599 33.518 65.5753 34.6591C65.3954 35.7718 65.0237 36.7448 64.4602 37.5781C63.9015 38.4115 63.1984 39.0601 62.3509 39.5241C61.5033 39.9834 60.5516 40.2131 59.4957 40.2131ZM59.7088 38.1534C60.3054 38.1534 60.8286 37.9924 61.2784 37.6705C61.733 37.3437 62.1046 36.9058 62.3935 36.3565C62.687 35.8026 62.8906 35.187 63.0043 34.5099C63.1084 33.8565 63.1108 33.2647 63.0114 32.7344C62.9119 32.1993 62.6989 31.7756 62.3722 31.4631C62.0502 31.1458 61.6027 30.9872 61.0298 30.9872C60.4332 30.9872 59.9053 31.1529 59.446 31.4844C58.9915 31.8111 58.6198 32.2514 58.331 32.8054C58.0421 33.3546 57.8433 33.9678 57.7344 34.6449C57.6255 35.2983 57.6207 35.8902 57.7202 36.4205C57.8196 36.9508 58.0327 37.3722 58.3594 37.6847C58.6861 37.9972 59.1359 38.1534 59.7088 38.1534ZM70.9109 40.1918C70.0539 40.1918 69.3223 39.9716 68.7163 39.5312C68.1102 39.0909 67.6793 38.4517 67.4237 37.6136C67.1727 36.7756 67.1443 35.7576 67.3384 34.5597C67.542 33.3475 67.9137 32.3248 68.4535 31.4915C68.9933 30.6534 69.6372 30.0213 70.3853 29.5952C71.1381 29.1643 71.9336 28.9489 72.7717 28.9489C73.4156 28.9489 73.9246 29.0578 74.2987 29.2756C74.6774 29.4886 74.9615 29.7467 75.1509 30.0497C75.3403 30.348 75.48 30.6297 75.57 30.8949H75.6765L76.5785 25.4545H79.1566L76.7418 40H74.2134L74.5046 38.2812H74.3484C74.1684 38.5464 73.9293 38.8281 73.631 39.1264C73.3327 39.42 72.9611 39.6709 72.516 39.8793C72.0709 40.0876 71.5359 40.1918 70.9109 40.1918ZM71.9336 38.0824C72.4828 38.0824 72.9753 37.9356 73.4109 37.642C73.8512 37.3437 74.2182 36.9295 74.5117 36.3991C74.8053 35.8688 75.0112 35.2509 75.1296 34.5455C75.248 33.84 75.248 33.2268 75.1296 32.706C75.0112 32.1851 74.7816 31.7803 74.4407 31.4915C74.0998 31.2027 73.6523 31.0582 73.0984 31.0582C72.5302 31.0582 72.0307 31.2074 71.5998 31.5057C71.1737 31.804 70.8233 32.2159 70.5487 32.7415C70.274 33.267 70.0799 33.8684 69.9663 34.5455C69.8526 35.2273 69.8455 35.8357 69.945 36.3707C70.0491 36.901 70.2646 37.3201 70.5913 37.6278C70.9227 37.9309 71.3701 38.0824 71.9336 38.0824ZM84.2809 40.2131C83.2061 40.2131 82.3112 39.9763 81.5962 39.5028C80.886 39.0294 80.3865 38.3641 80.0977 37.5071C79.8088 36.6501 79.7567 35.6558 79.9414 34.5241C80.1261 33.4067 80.4954 32.429 81.0494 31.5909C81.6081 30.7528 82.3112 30.1042 83.1587 29.6449C84.011 29.1809 84.9651 28.9489 86.021 28.9489C87.0958 28.9489 87.9883 29.188 88.6985 29.6662C89.4087 30.1397 89.9083 30.8049 90.1971 31.6619C90.4906 32.5189 90.5451 33.518 90.3604 34.6591C90.1805 35.7718 89.8088 36.7448 89.2454 37.5781C88.6867 38.4115 87.9835 39.0601 87.136 39.5241C86.2885 39.9834 85.3368 40.2131 84.2809 40.2131ZM84.494 38.1534C85.0906 38.1534 85.6138 37.9924 86.0636 37.6705C86.5181 37.3437 86.8898 36.9058 87.1786 36.3565C87.4722 35.8026 87.6758 35.187 87.7894 34.5099C87.8936 33.8565 87.896 33.2647 87.7965 32.7344C87.6971 32.1993 87.484 31.7756 87.1573 31.4631C86.8353 31.1458 86.3879 30.9872 85.815 30.9872C85.2184 30.9872 84.6905 31.1529 84.2312 31.4844C83.7766 31.8111 83.4049 32.2514 83.1161 32.8054C82.8273 33.3546 82.6284 33.9678 82.5195 34.6449C82.4106 35.2983 82.4059 35.8902 82.5053 36.4205C82.6048 36.9508 82.8178 37.3722 83.1445 37.6847C83.4712 37.9972 83.921 38.1534 84.494 38.1534ZM8.40199 55.669L8.05398 57.7855H1.51278L1.8608 55.669H8.40199ZM12.2567 49.4545H15.4812L18.0593 59.9943H18.2298L24.288 49.4545H27.5124L25.0977 64H22.5692L24.2312 54.0071H24.1033L18.4215 63.9574H16.5394L14.1815 53.9858H14.0465L12.3704 64H9.84197L12.2567 49.4545ZM35.5664 59.4119L36.6246 53.0909H39.1957L37.3775 64H34.8846L35.2113 62.0611H35.0977C34.7567 62.6719 34.2691 63.1714 33.6346 63.5597C33.0049 63.9479 32.2804 64.142 31.4613 64.142C30.7463 64.142 30.1426 63.9834 29.6502 63.6662C29.1578 63.3442 28.8074 62.8778 28.5991 62.267C28.3955 61.6515 28.3647 60.9081 28.5067 60.0369L29.6715 53.0909H32.2425L31.1488 59.6392C31.0399 60.3305 31.1393 60.8797 31.4471 61.2869C31.7596 61.6941 32.2236 61.8977 32.8391 61.8977C33.2179 61.8977 33.5991 61.8054 33.9826 61.6207C34.3709 61.4361 34.7094 61.1615 34.9982 60.7969C35.2871 60.4276 35.4764 59.9659 35.5664 59.4119ZM40.9517 68.0909C40.6013 68.0909 40.2817 68.0625 39.9929 68.0057C39.7088 67.9536 39.4839 67.892 39.3182 67.821L40.2557 65.8182C40.6108 65.9271 40.9304 65.9744 41.2145 65.9602C41.5033 65.9508 41.7685 65.8537 42.0099 65.669C42.2562 65.4891 42.4976 65.1932 42.7344 64.7812L43.0611 64.1918L40.973 53.0909H43.6009L44.7372 61.3438H44.8509L48.75 53.0909H51.5838L45.1989 65.3068C44.8911 65.8987 44.5336 66.4006 44.1264 66.8125C43.7192 67.2292 43.2528 67.5464 42.7273 67.7642C42.2064 67.982 41.6146 68.0909 40.9517 68.0909ZM64.2188 59.4119L65.277 53.0909H67.848L66.0298 64H63.5369L63.8636 62.0611H63.75C63.4091 62.6719 62.9214 63.1714 62.2869 63.5597C61.6572 63.9479 60.9328 64.142 60.1136 64.142C59.3987 64.142 58.795 63.9834 58.3026 63.6662C57.8101 63.3442 57.4598 62.8778 57.2514 62.267C57.0478 61.6515 57.017 60.9081 57.1591 60.0369L58.3239 53.0909H60.8949L59.8011 59.6392C59.6922 60.3305 59.7917 60.8797 60.0994 61.2869C60.4119 61.6941 60.8759 61.8977 61.4915 61.8977C61.8703 61.8977 62.2514 61.8054 62.6349 61.6207C63.0232 61.4361 63.3617 61.1615 63.6506 60.7969C63.9394 60.4276 64.1288 59.9659 64.2188 59.4119ZM62.3366 51.6562L64.4602 48.4105H66.9744L64.2543 51.6562H62.3366ZM75.9393 53.0909L75.6055 55.0795H69.3413L69.668 53.0909H75.9393ZM71.6424 50.4773H74.2134L72.5089 60.7188C72.4568 61.0644 72.4663 61.3295 72.5373 61.5142C72.613 61.6941 72.7338 61.8172 72.8995 61.8835C73.07 61.9498 73.2617 61.983 73.4748 61.983C73.631 61.983 73.7778 61.9711 73.9151 61.9474C74.0524 61.919 74.1613 61.8977 74.2418 61.8835L74.3555 63.8935C74.1992 63.9408 73.9885 63.9929 73.7234 64.0497C73.463 64.1065 73.1505 64.1397 72.7859 64.1491C72.1325 64.1634 71.5643 64.0639 71.0813 63.8509C70.6031 63.633 70.2527 63.2992 70.0302 62.8494C69.8124 62.3949 69.7627 61.8267 69.881 61.1449L71.6424 50.4773ZM76.2713 64L78.0895 53.0909H80.6605L78.8423 64H76.2713ZM79.7514 51.5284C79.3395 51.5284 78.9986 51.3911 78.7287 51.1165C78.4588 50.8419 78.3404 50.5128 78.3736 50.1293C78.4067 49.7457 78.5795 49.4167 78.892 49.142C79.2093 48.8674 79.5715 48.7301 79.9787 48.7301C80.3906 48.7301 80.7292 48.8674 80.9943 49.142C81.2642 49.4167 81.3826 49.7457 81.3494 50.1293C81.321 50.5128 81.1482 50.8419 80.831 51.1165C80.5185 51.3911 80.1586 51.5284 79.7514 51.5284ZM86.4719 49.4545L84.0572 64H81.4862L83.9009 49.4545H86.4719ZM90.9872 68.0909L93.5014 53.0909H96.0298L95.7386 54.8949H95.8878C96.0582 54.6297 96.2879 54.348 96.5767 54.0497C96.8703 53.7467 97.242 53.4886 97.6918 53.2756C98.1416 53.0578 98.6884 52.9489 99.3324 52.9489C100.17 52.9489 100.893 53.1643 101.499 53.5952C102.105 54.0213 102.538 54.6534 102.798 55.4915C103.063 56.3248 103.097 57.3475 102.898 58.5597C102.699 59.7576 102.332 60.7756 101.797 61.6136C101.262 62.4517 100.62 63.0909 99.8722 63.5312C99.1241 63.9716 98.3215 64.1918 97.4645 64.1918C96.8395 64.1918 96.3352 64.0876 95.9517 63.8793C95.5729 63.6709 95.2865 63.42 95.0923 63.1264C94.8982 62.8281 94.7538 62.5464 94.6591 62.2812H94.5455L93.5795 68.0909H90.9872ZM95.1136 58.5455C95 59.2509 94.9976 59.8688 95.1065 60.3991C95.2202 60.9295 95.4451 61.3437 95.7812 61.642C96.1174 61.9356 96.5578 62.0824 97.1023 62.0824C97.6705 62.0824 98.1676 61.9309 98.5938 61.6278C99.0246 61.3201 99.3821 60.901 99.6662 60.3707C99.955 59.8357 100.159 59.2273 100.277 58.5455C100.386 57.8684 100.386 57.267 100.277 56.7415C100.168 56.2159 99.9479 55.804 99.6165 55.5057C99.285 55.2074 98.8352 55.0582 98.267 55.0582C97.7131 55.0582 97.2183 55.2027 96.7827 55.4915C96.3518 55.7803 95.9943 56.1851 95.7102 56.706C95.4261 57.2268 95.2273 57.84 95.1136 58.5455ZM107.292 64.2202C106.601 64.2202 106 64.0971 105.488 63.8509C104.977 63.5999 104.6 63.2306 104.359 62.7429C104.122 62.2552 104.063 61.6539 104.181 60.9389C104.286 60.3234 104.484 59.8144 104.778 59.4119C105.076 59.0095 105.441 58.6875 105.872 58.446C106.307 58.1998 106.781 58.0152 107.292 57.892C107.808 57.7689 108.334 57.679 108.869 57.6222C109.522 57.5559 110.05 57.4943 110.453 57.4375C110.86 57.3807 111.165 57.2955 111.369 57.1818C111.573 57.0634 111.696 56.8835 111.738 56.642V56.5994C111.824 56.0644 111.738 55.6501 111.483 55.3565C111.227 55.063 110.801 54.9162 110.204 54.9162C109.579 54.9162 109.054 55.0535 108.627 55.3281C108.201 55.6027 107.891 55.9271 107.697 56.3011L105.368 55.9602C105.661 55.2973 106.064 54.7434 106.575 54.2983C107.086 53.8485 107.676 53.5123 108.343 53.2898C109.016 53.0625 109.733 52.9489 110.495 52.9489C111.016 52.9489 111.525 53.0104 112.022 53.1335C112.524 53.2566 112.967 53.4602 113.35 53.7443C113.739 54.0237 114.023 54.4048 114.203 54.8878C114.387 55.3707 114.418 55.9744 114.295 56.6989L113.081 64H110.609L110.865 62.5014H110.779C110.576 62.8045 110.311 63.0885 109.984 63.3537C109.657 63.6141 109.269 63.8248 108.819 63.9858C108.369 64.142 107.86 64.2202 107.292 64.2202ZM108.265 62.331C108.781 62.331 109.245 62.2292 109.657 62.0256C110.069 61.8172 110.408 61.5426 110.673 61.2017C110.938 60.8608 111.104 60.4891 111.17 60.0866L111.383 58.8011C111.288 58.8674 111.142 58.929 110.943 58.9858C110.744 59.0426 110.521 59.0923 110.275 59.1349C110.034 59.1776 109.795 59.2154 109.558 59.2486C109.321 59.2817 109.118 59.3101 108.947 59.3338C108.554 59.3859 108.194 59.4711 107.868 59.5895C107.546 59.7079 107.278 59.8736 107.065 60.0866C106.857 60.295 106.726 60.5649 106.674 60.8963C106.599 61.3651 106.71 61.7225 107.008 61.9688C107.306 62.2102 107.725 62.331 108.265 62.331ZM115.666 64L117.484 53.0909H119.977L119.672 54.9091H119.785C120.083 54.2794 120.505 53.794 121.049 53.4531C121.599 53.1075 122.186 52.9347 122.811 52.9347C122.958 52.9347 123.116 52.9418 123.287 52.956C123.457 52.9654 123.604 52.982 123.727 53.0057L123.329 55.3707C123.22 55.3329 123.05 55.2997 122.818 55.2713C122.591 55.2382 122.366 55.2216 122.143 55.2216C121.674 55.2216 121.239 55.3234 120.836 55.527C120.439 55.7259 120.102 56.0028 119.828 56.358C119.553 56.7131 119.376 57.1226 119.295 57.5866L118.237 64H115.666ZM126.531 64.2202C125.839 64.2202 125.238 64.0971 124.727 63.8509C124.215 63.5999 123.839 63.2306 123.597 62.7429C123.361 62.2552 123.301 61.6539 123.42 60.9389C123.524 60.3234 123.723 59.8144 124.016 59.4119C124.315 59.0095 124.679 58.6875 125.11 58.446C125.546 58.1998 126.019 58.0152 126.531 57.892C127.047 57.7689 127.572 57.679 128.107 57.6222C128.761 57.5559 129.289 57.4943 129.691 57.4375C130.098 57.3807 130.404 57.2955 130.607 57.1818C130.811 57.0634 130.934 56.8835 130.977 56.642V56.5994C131.062 56.0644 130.977 55.6501 130.721 55.3565C130.465 55.063 130.039 54.9162 129.442 54.9162C128.817 54.9162 128.292 55.0535 127.866 55.3281C127.44 55.6027 127.129 55.9271 126.935 56.3011L124.606 55.9602C124.899 55.2973 125.302 54.7434 125.813 54.2983C126.325 53.8485 126.914 53.5123 127.582 53.2898C128.254 53.0625 128.971 52.9489 129.734 52.9489C130.254 52.9489 130.763 53.0104 131.261 53.1335C131.763 53.2566 132.205 53.4602 132.589 53.7443C132.977 54.0237 133.261 54.4048 133.441 54.8878C133.626 55.3707 133.656 55.9744 133.533 56.6989L132.319 64H129.847L130.103 62.5014H130.018C129.814 62.8045 129.549 63.0885 129.222 63.3537C128.896 63.6141 128.507 63.8248 128.058 63.9858C127.608 64.142 127.099 64.2202 126.531 64.2202ZM127.504 62.331C128.02 62.331 128.484 62.2292 128.896 62.0256C129.308 61.8172 129.646 61.5426 129.911 61.2017C130.176 60.8608 130.342 60.4891 130.408 60.0866L130.621 58.8011C130.527 58.8674 130.38 58.929 130.181 58.9858C129.982 59.0426 129.76 59.0923 129.513 59.1349C129.272 59.1776 129.033 59.2154 128.796 59.2486C128.559 59.2817 128.356 59.3101 128.185 59.3338C127.792 59.3859 127.433 59.4711 127.106 59.5895C126.784 59.7079 126.516 59.8736 126.303 60.0866C126.095 60.295 125.965 60.5649 125.913 60.8963C125.837 61.3651 125.948 61.7225 126.246 61.9688C126.545 62.2102 126.964 62.331 127.504 62.331ZM144.666 64.2131C143.572 64.2131 142.668 63.9858 141.953 63.5312C141.238 63.072 140.736 62.4233 140.447 61.5852C140.163 60.7424 140.116 59.7505 140.305 58.6094C140.49 57.4872 140.866 56.5024 141.435 55.6548C142.003 54.8026 142.713 54.1397 143.565 53.6662C144.422 53.188 145.369 52.9489 146.406 52.9489C147.079 52.9489 147.696 53.0578 148.26 53.2756C148.823 53.4886 149.299 53.8201 149.688 54.2699C150.076 54.7197 150.343 55.2926 150.49 55.9886C150.637 56.6799 150.63 57.5038 150.469 58.4602L150.348 59.2486H141.399L141.676 57.5156H148.153C148.239 57.0232 148.21 56.5852 148.068 56.2017C147.926 55.8134 147.689 55.508 147.358 55.2855C147.027 55.063 146.612 54.9517 146.115 54.9517C145.608 54.9517 145.135 55.0819 144.695 55.3423C144.259 55.598 143.892 55.9295 143.594 56.3366C143.295 56.7438 143.106 57.1723 143.026 57.6222L142.734 59.2841C142.63 59.9659 142.654 60.5223 142.805 60.9531C142.957 61.384 143.222 61.7012 143.601 61.9048C143.98 62.1084 144.458 62.2102 145.036 62.2102C145.414 62.2102 145.765 62.1581 146.087 62.054C146.409 61.9498 146.695 61.7936 146.946 61.5852C147.202 61.3722 147.415 61.1117 147.585 60.804L149.936 61.0739C149.676 61.7083 149.295 62.2623 148.793 62.7358C148.291 63.2045 147.689 63.5691 146.989 63.8295C146.293 64.0852 145.518 64.2131 144.666 64.2131ZM153.558 53.0909H156.129L154.212 64.625C154.079 65.411 153.819 66.0597 153.43 66.571C153.047 67.0824 152.55 67.4635 151.939 67.7145C151.333 67.9654 150.627 68.0909 149.822 68.0909C149.742 68.0909 149.661 68.0885 149.581 68.0838C149.496 68.0838 149.408 68.0814 149.318 68.0767L149.666 65.9815C149.732 65.9863 149.794 65.9886 149.851 65.9886C149.908 65.9934 149.969 65.9957 150.036 65.9957C150.528 65.9957 150.902 65.875 151.158 65.6335C151.409 65.3968 151.574 65.0488 151.655 64.5895L153.558 53.0909ZM155.185 51.5426C154.777 51.5426 154.437 51.4053 154.162 51.1307C153.892 50.8561 153.774 50.5294 153.807 50.1506C153.84 49.7623 154.013 49.4332 154.325 49.1634C154.643 48.8887 155.007 48.7514 155.419 48.7514C155.826 48.7514 156.162 48.8887 156.428 49.1634C156.697 49.4332 156.816 49.7623 156.783 50.1506C156.754 50.5294 156.581 50.8561 156.264 51.1307C155.952 51.4053 155.592 51.5426 155.185 51.5426ZM161.756 64.2131C160.662 64.2131 159.758 63.9858 159.043 63.5312C158.328 63.072 157.826 62.4233 157.537 61.5852C157.253 60.7424 157.206 59.7505 157.395 58.6094C157.58 57.4872 157.956 56.5024 158.525 55.6548C159.093 54.8026 159.803 54.1397 160.655 53.6662C161.512 53.188 162.459 52.9489 163.496 52.9489C164.168 52.9489 164.786 53.0578 165.35 53.2756C165.913 53.4886 166.389 53.8201 166.777 54.2699C167.166 54.7197 167.433 55.2926 167.58 55.9886C167.727 56.6799 167.72 57.5038 167.559 58.4602L167.438 59.2486H158.489L158.766 57.5156H165.243C165.328 57.0232 165.3 56.5852 165.158 56.2017C165.016 55.8134 164.779 55.508 164.448 55.2855C164.116 55.063 163.702 54.9517 163.205 54.9517C162.698 54.9517 162.225 55.0819 161.784 55.3423C161.349 55.598 160.982 55.9295 160.684 56.3366C160.385 56.7438 160.196 57.1723 160.115 57.6222L159.824 59.2841C159.72 59.9659 159.744 60.5223 159.895 60.9531C160.047 61.384 160.312 61.7012 160.691 61.9048C161.069 62.1084 161.548 62.2102 162.125 62.2102C162.504 62.2102 162.855 62.1581 163.176 62.054C163.498 61.9498 163.785 61.7936 164.036 61.5852C164.292 61.3722 164.505 61.1117 164.675 60.804L167.026 61.0739C166.766 61.7083 166.384 62.2623 165.882 62.7358C165.381 63.2045 164.779 63.5691 164.078 63.8295C163.382 64.0852 162.608 64.2131 161.756 64.2131ZM168.83 64L170.648 53.0909H173.141L172.836 54.9091H172.949C173.248 54.2794 173.669 53.794 174.213 53.4531C174.763 53.1075 175.35 52.9347 175.975 52.9347C176.122 52.9347 176.28 52.9418 176.451 52.956C176.621 52.9654 176.768 52.982 176.891 53.0057L176.493 55.3707C176.384 55.3329 176.214 55.2997 175.982 55.2713C175.755 55.2382 175.53 55.2216 175.307 55.2216C174.838 55.2216 174.403 55.3234 174 55.527C173.603 55.7259 173.266 56.0028 172.992 56.358C172.717 56.7131 172.54 57.1226 172.459 57.5866L171.401 64H168.83ZM181.06 64.2131C179.971 64.2131 179.076 63.974 178.375 63.4957C177.675 63.0175 177.185 62.357 176.905 61.5142C176.631 60.6667 176.586 59.6913 176.77 58.5881C176.95 57.4801 177.322 56.5024 177.885 55.6548C178.453 54.8026 179.168 54.1397 180.03 53.6662C180.892 53.188 181.855 52.9489 182.921 52.9489C183.806 52.9489 184.561 53.1122 185.186 53.4389C185.816 53.7609 186.285 54.2178 186.593 54.8097C186.905 55.3968 187.026 56.0833 186.955 56.8693H184.49C184.481 56.3437 184.318 55.9058 184 55.5554C183.683 55.2003 183.219 55.0227 182.608 55.0227C182.078 55.0227 181.59 55.1648 181.145 55.4489C180.7 55.7282 180.324 56.1307 180.016 56.6562C179.708 57.1818 179.495 57.8116 179.377 58.5455C179.254 59.2888 179.256 59.928 179.384 60.4631C179.516 60.9934 179.756 61.4029 180.101 61.6918C180.452 61.9759 180.894 62.1179 181.429 62.1179C181.808 62.1179 182.161 62.0469 182.488 61.9048C182.814 61.758 183.101 61.5473 183.347 61.2727C183.598 60.9981 183.794 60.6643 183.936 60.2713H186.394C186.2 61.0431 185.854 61.7273 185.357 62.3239C184.864 62.9157 184.254 63.3797 183.525 63.7159C182.795 64.0473 181.974 64.2131 181.06 64.2131ZM187.873 64L189.691 53.0909H192.262L190.444 64H187.873ZM191.353 51.5284C190.941 51.5284 190.6 51.3911 190.33 51.1165C190.06 50.8419 189.942 50.5128 189.975 50.1293C190.008 49.7457 190.181 49.4167 190.494 49.142C190.811 48.8674 191.173 48.7301 191.58 48.7301C191.992 48.7301 192.331 48.8674 192.596 49.142C192.866 49.4167 192.984 49.7457 192.951 50.1293C192.923 50.5128 192.75 50.8419 192.433 51.1165C192.12 51.3911 191.76 51.5284 191.353 51.5284ZM197.818 64.2131C196.729 64.2131 195.834 63.974 195.133 63.4957C194.432 63.0175 193.942 62.357 193.663 61.5142C193.388 60.6667 193.343 59.6913 193.528 58.5881C193.708 57.4801 194.08 56.5024 194.643 55.6548C195.211 54.8026 195.926 54.1397 196.788 53.6662C197.65 53.188 198.613 52.9489 199.679 52.9489C200.564 52.9489 201.319 53.1122 201.944 53.4389C202.574 53.7609 203.043 54.2178 203.35 54.8097C203.663 55.3968 203.784 56.0833 203.713 56.8693H201.248C201.239 56.3437 201.075 55.9058 200.758 55.5554C200.441 55.2003 199.977 55.0227 199.366 55.0227C198.836 55.0227 198.348 55.1648 197.903 55.4489C197.458 55.7282 197.082 56.1307 196.774 56.6562C196.466 57.1818 196.253 57.8116 196.135 58.5455C196.011 59.2888 196.014 59.928 196.142 60.4631C196.274 60.9934 196.513 61.4029 196.859 61.6918C197.209 61.9759 197.652 62.1179 198.187 62.1179C198.566 62.1179 198.919 62.0469 199.245 61.9048C199.572 61.758 199.859 61.5473 200.105 61.2727C200.356 60.9981 200.552 60.6643 200.694 60.2713H203.152C202.958 61.0431 202.612 61.7273 202.115 62.3239C201.622 62.9157 201.011 63.3797 200.282 63.7159C199.553 64.0473 198.732 64.2131 197.818 64.2131ZM204.631 64L206.449 53.0909H209.02L207.202 64H204.631ZM208.111 51.5284C207.699 51.5284 207.358 51.3911 207.088 51.1165C206.818 50.8419 206.7 50.5128 206.733 50.1293C206.766 49.7457 206.939 49.4167 207.251 49.142C207.569 48.8674 207.931 48.7301 208.338 48.7301C208.75 48.7301 209.089 48.8674 209.354 49.142C209.624 49.4167 209.742 49.7457 209.709 50.1293C209.68 50.5128 209.508 50.8419 209.19 51.1165C208.878 51.3911 208.518 51.5284 208.111 51.5284ZM214.632 64.2131C213.558 64.2131 212.663 63.9763 211.948 63.5028C211.238 63.0294 210.738 62.3641 210.449 61.5071C210.16 60.6501 210.108 59.6558 210.293 58.5241C210.478 57.4067 210.847 56.429 211.401 55.5909C211.96 54.7528 212.663 54.1042 213.51 53.6449C214.363 53.1809 215.317 52.9489 216.373 52.9489C217.447 52.9489 218.34 53.188 219.05 53.6662C219.76 54.1397 220.26 54.8049 220.549 55.6619C220.842 56.5189 220.897 57.518 220.712 58.6591C220.532 59.7718 220.16 60.7448 219.597 61.5781C219.038 62.4115 218.335 63.0601 217.488 63.5241C216.64 63.9834 215.688 64.2131 214.632 64.2131ZM214.846 62.1534C215.442 62.1534 215.965 61.9924 216.415 61.6705C216.87 61.3437 217.241 60.9058 217.53 60.3565C217.824 59.8026 218.027 59.187 218.141 58.5099C218.245 57.8565 218.248 57.2647 218.148 56.7344C218.049 56.1993 217.836 55.7756 217.509 55.4631C217.187 55.1458 216.739 54.9872 216.167 54.9872C215.57 54.9872 215.042 55.1529 214.583 55.4844C214.128 55.8111 213.757 56.2514 213.468 56.8054C213.179 57.3546 212.98 57.9678 212.871 58.6449C212.762 59.2983 212.757 59.8902 212.857 60.4205C212.956 60.9508 213.169 61.3722 213.496 61.6847C213.823 61.9972 214.273 62.1534 214.846 62.1534ZM8.40199 79.669L8.05398 81.7855H1.51278L1.8608 79.669H8.40199ZM18.0309 73.4545L15.6161 88H12.9812L14.9698 76.0185H14.8846L11.1204 78.1918L11.5181 75.777L15.5238 73.4545H18.0309ZM24.6502 88.277C23.476 88.277 22.5195 87.9811 21.7809 87.3892C21.0423 86.7926 20.5427 85.9332 20.2823 84.8111C20.0266 83.6842 20.0314 82.3277 20.2965 80.7415C20.5569 79.1553 21.0044 77.8059 21.6388 76.6932C22.2733 75.5758 23.0569 74.7235 23.9897 74.1364C24.9225 73.5492 25.9689 73.2557 27.1289 73.2557C28.2937 73.2557 29.2454 73.5492 29.984 74.1364C30.7274 74.7235 31.2317 75.5758 31.4968 76.6932C31.762 77.8059 31.762 79.1553 31.4968 80.7415C31.2317 82.3277 30.7818 83.6842 30.1474 84.8111C29.5176 85.9332 28.734 86.7926 27.7965 87.3892C26.8638 87.9811 25.815 88.277 24.6502 88.277ZM25.0195 86.054C25.9286 86.054 26.7193 85.6042 27.3917 84.7045C28.064 83.8049 28.547 82.4839 28.8406 80.7415C29.0347 79.5862 29.0749 78.6155 28.9613 77.8295C28.8524 77.0436 28.6109 76.4517 28.2369 76.054C27.8628 75.6515 27.3751 75.4503 26.7738 75.4503C25.8694 75.4503 25.0787 75.9001 24.4016 76.7997C23.7246 77.6946 23.2416 79.0085 22.9528 80.7415C22.7586 81.9062 22.716 82.884 22.8249 83.6747C22.9338 84.4607 23.1753 85.0549 23.5494 85.4574C23.9234 85.8551 24.4135 86.054 25.0195 86.054ZM37.9901 88.277C36.8158 88.277 35.8594 87.9811 35.1207 87.3892C34.3821 86.7926 33.8826 85.9332 33.6222 84.8111C33.3665 83.6842 33.3712 82.3277 33.6364 80.7415C33.8968 79.1553 34.3442 77.8059 34.9787 76.6932C35.6132 75.5758 36.3968 74.7235 37.3295 74.1364C38.2623 73.5492 39.3087 73.2557 40.4688 73.2557C41.6335 73.2557 42.5852 73.5492 43.3239 74.1364C44.0672 74.7235 44.5715 75.5758 44.8366 76.6932C45.1018 77.8059 45.1018 79.1553 44.8366 80.7415C44.5715 82.3277 44.1217 83.6842 43.4872 84.8111C42.8575 85.9332 42.0739 86.7926 41.1364 87.3892C40.2036 87.9811 39.1548 88.277 37.9901 88.277ZM38.3594 86.054C39.2685 86.054 40.0592 85.6042 40.7315 84.7045C41.4039 83.8049 41.8868 82.4839 42.1804 80.7415C42.3745 79.5862 42.4148 78.6155 42.3011 77.8295C42.1922 77.0436 41.9508 76.4517 41.5767 76.054C41.2027 75.6515 40.715 75.4503 40.1136 75.4503C39.2093 75.4503 38.4186 75.9001 37.7415 76.7997C37.0644 77.6946 36.5814 79.0085 36.2926 80.7415C36.0985 81.9062 36.0559 82.884 36.1648 83.6747C36.2737 84.4607 36.5152 85.0549 36.8892 85.4574C37.2633 85.8551 37.7533 86.054 38.3594 86.054ZM59.1815 85.2727L59.3235 84.5057C59.4277 83.9422 59.636 83.4238 59.9485 82.9503C60.2657 82.4768 60.6753 82.0956 61.1772 81.8068C61.6791 81.518 62.2591 81.3736 62.9173 81.3736C63.5896 81.3736 64.1317 81.518 64.5437 81.8068C64.9556 82.0909 65.2397 82.4697 65.396 82.9432C65.5569 83.4167 65.583 83.9375 65.4741 84.5057L65.332 85.2727C65.2326 85.8314 65.0243 86.3499 64.707 86.8281C64.3945 87.3016 63.9873 87.6828 63.4854 87.9716C62.9835 88.2604 62.4035 88.4048 61.7454 88.4048C61.0778 88.4048 60.5356 88.2604 60.119 87.9716C59.707 87.6828 59.4206 87.3016 59.2596 86.8281C59.1033 86.3499 59.0773 85.8314 59.1815 85.2727ZM61.1772 84.5057L61.0352 85.2727C60.9689 85.642 60.9996 85.9853 61.1275 86.3026C61.2601 86.6151 61.5536 86.7713 62.0082 86.7713C62.4627 86.7713 62.8013 86.6151 63.0238 86.3026C63.2463 85.9901 63.3931 85.6468 63.4641 85.2727L63.6062 84.5057C63.6772 84.1269 63.6535 83.7812 63.5352 83.4688C63.4168 83.1515 63.1232 82.9929 62.6545 82.9929C62.2047 82.9929 61.8638 83.1515 61.6317 83.4688C61.3997 83.7812 61.2482 84.1269 61.1772 84.5057ZM53.18 76.9489L53.2937 76.1818C53.3789 75.6136 53.5801 75.0928 53.8974 74.6193C54.2193 74.1458 54.6336 73.767 55.1403 73.483C55.6516 73.1941 56.234 73.0497 56.8874 73.0497C57.5598 73.0497 58.0972 73.1941 58.4996 73.483C58.9068 73.767 59.1886 74.1458 59.3448 74.6193C59.5011 75.0928 59.5342 75.6136 59.4442 76.1818L59.3306 76.9489C59.2501 77.517 59.0513 78.0379 58.734 78.5114C58.4168 78.9848 58.0025 79.3636 57.4911 79.6477C56.9845 79.9271 56.4021 80.0668 55.744 80.0668C55.0763 80.0668 54.5389 79.9271 54.1317 79.6477C53.7246 79.3636 53.4428 78.9848 53.2866 78.5114C53.1351 78.0331 53.0996 77.5123 53.18 76.9489ZM55.1616 76.1818L55.0479 76.9489C54.9911 77.3277 55.0243 77.6733 55.1474 77.9858C55.2705 78.2936 55.5569 78.4474 56.0067 78.4474C56.466 78.4474 56.8093 78.2936 57.0366 77.9858C57.2638 77.6733 57.4059 77.3277 57.4627 76.9489L57.5763 76.1818C57.6332 75.803 57.6048 75.4574 57.4911 75.1449C57.3822 74.8277 57.0934 74.669 56.6246 74.669C56.1748 74.669 55.8316 74.8277 55.5948 75.1449C55.3628 75.4621 55.2184 75.8078 55.1616 76.1818ZM52.1005 88L64.5153 73.4545H66.3903L53.9755 88H52.1005ZM75.9251 88.2202C75.2338 88.2202 74.6325 88.0971 74.1211 87.8509C73.6097 87.5999 73.2333 87.2306 72.9918 86.7429C72.7551 86.2552 72.6959 85.6539 72.8143 84.9389C72.9184 84.3234 73.1173 83.8144 73.4109 83.4119C73.7092 83.0095 74.0737 82.6875 74.5046 82.446C74.9402 82.1998 75.4137 82.0152 75.9251 81.892C76.4412 81.7689 76.9667 81.679 77.5018 81.6222C78.1552 81.5559 78.6831 81.4943 79.0856 81.4375C79.4928 81.3807 79.7982 81.2955 80.0018 81.1818C80.2054 81.0634 80.3285 80.8835 80.3711 80.642V80.5994C80.4563 80.0644 80.3711 79.6501 80.1154 79.3565C79.8597 79.063 79.4336 78.9162 78.837 78.9162C78.212 78.9162 77.6864 79.0535 77.2603 79.3281C76.8342 79.6027 76.524 79.9271 76.3299 80.3011L74.0004 79.9602C74.2939 79.2973 74.6964 78.7434 75.2077 78.2983C75.7191 77.8485 76.3086 77.5123 76.9762 77.2898C77.6486 77.0625 78.3659 76.9489 79.1282 76.9489C79.649 76.9489 80.158 77.0104 80.6552 77.1335C81.1571 77.2566 81.5998 77.4602 81.9833 77.7443C82.3716 78.0237 82.6557 78.4048 82.8356 78.8878C83.0202 79.3707 83.051 79.9744 82.9279 80.6989L81.7134 88H79.2418L79.4975 86.5014H79.4123C79.2087 86.8045 78.9435 87.0885 78.6168 87.3537C78.2901 87.6141 77.9019 87.8248 77.4521 87.9858C77.0022 88.142 76.4933 88.2202 75.9251 88.2202ZM76.8981 86.331C77.4142 86.331 77.8782 86.2292 78.2901 86.0256C78.7021 85.8172 79.0406 85.5426 79.3058 85.2017C79.5709 84.8608 79.7366 84.4891 79.8029 84.0866L80.016 82.8011C79.9213 82.8674 79.7745 82.929 79.5756 82.9858C79.3768 83.0426 79.1542 83.0923 78.908 83.1349C78.6665 83.1776 78.4274 83.2154 78.1907 83.2486C77.954 83.2817 77.7504 83.3101 77.5799 83.3338C77.1869 83.3859 76.8271 83.4711 76.5004 83.5895C76.1784 83.7079 75.9109 83.8736 75.6978 84.0866C75.4895 84.295 75.3593 84.5649 75.3072 84.8963C75.2314 85.3651 75.3427 85.7225 75.641 85.9688C75.9393 86.2102 76.3583 86.331 76.8981 86.331ZM89.2844 73.4545L86.8697 88H84.2987L86.7134 73.4545H89.2844ZM93.576 92.3182C92.648 92.3182 91.8738 92.1927 91.2536 91.9418C90.6333 91.6955 90.1551 91.3641 89.8189 90.9474C89.4827 90.5308 89.2744 90.0691 89.1939 89.5625L91.6087 89.0014C91.6797 89.2145 91.7933 89.4252 91.9496 89.6335C92.1106 89.8466 92.3473 90.0218 92.6598 90.1591C92.9723 90.3011 93.389 90.3722 93.9098 90.3722C94.639 90.3722 95.2758 90.1946 95.8203 89.8395C96.3648 89.4844 96.701 88.9067 96.8288 88.1065L97.1555 86.0398H97.0277C96.8572 86.3049 96.6229 86.5772 96.3246 86.8565C96.031 87.1359 95.6593 87.3703 95.2095 87.5597C94.7644 87.7491 94.2294 87.8438 93.6044 87.8438C92.7663 87.8438 92.0395 87.6473 91.424 87.2543C90.8085 86.8565 90.3658 86.2647 90.0959 85.4787C89.8307 84.688 89.7976 83.6984 89.9964 82.5099C90.1906 81.312 90.5552 80.3011 91.0902 79.4773C91.63 78.6487 92.2763 78.0213 93.0291 77.5952C93.782 77.1643 94.5774 76.9489 95.4155 76.9489C96.0547 76.9489 96.5637 77.0578 96.9425 77.2756C97.3213 77.4886 97.6077 77.7467 97.8018 78.0497C97.996 78.348 98.138 78.6297 98.228 78.8949H98.3629L98.6612 77.0909H101.197L99.3643 88.1776C99.2128 89.1103 98.8648 89.8821 98.3203 90.4929C97.7758 91.1084 97.0916 91.5653 96.2678 91.8636C95.4486 92.1667 94.5514 92.3182 93.576 92.3182ZM94.6271 85.8267C95.1716 85.8267 95.6593 85.6941 96.0902 85.429C96.5211 85.1638 96.8809 84.7827 97.1697 84.2855C97.4586 83.7884 97.6598 83.1918 97.7734 82.4957C97.8871 81.8092 97.8823 81.2079 97.7592 80.6918C97.6409 80.1757 97.4112 79.7756 97.0703 79.4915C96.7294 79.2027 96.2843 79.0582 95.7351 79.0582C95.1622 79.0582 94.6603 79.2074 94.2294 79.5057C93.8033 79.804 93.4529 80.2135 93.1783 80.7344C92.9084 81.2505 92.719 81.8376 92.6101 82.4957C92.5059 83.1634 92.5059 83.7481 92.6101 84.25C92.719 84.7472 92.9392 85.1354 93.2706 85.4148C93.6068 85.6894 94.0589 85.8267 94.6271 85.8267ZM106.8 88.2131C105.726 88.2131 104.831 87.9763 104.116 87.5028C103.406 87.0294 102.906 86.3641 102.617 85.5071C102.328 84.6501 102.276 83.6558 102.461 82.5241C102.646 81.4067 103.015 80.429 103.569 79.5909C104.128 78.7528 104.831 78.1042 105.678 77.6449C106.531 77.1809 107.485 76.9489 108.54 76.9489C109.615 76.9489 110.508 77.188 111.218 77.6662C111.928 78.1397 112.428 78.8049 112.717 79.6619C113.01 80.5189 113.065 81.518 112.88 82.6591C112.7 83.7718 112.328 84.7448 111.765 85.5781C111.206 86.4115 110.503 87.0601 109.656 87.5241C108.808 87.9834 107.856 88.2131 106.8 88.2131ZM107.013 86.1534C107.61 86.1534 108.133 85.9924 108.583 85.6705C109.038 85.3437 109.409 84.9058 109.698 84.3565C109.992 83.8026 110.195 83.187 110.309 82.5099C110.413 81.8565 110.415 81.2647 110.316 80.7344C110.217 80.1993 110.004 79.7756 109.677 79.4631C109.355 79.1458 108.907 78.9872 108.335 78.9872C107.738 78.9872 107.21 79.1529 106.751 79.4844C106.296 79.8111 105.924 80.2514 105.636 80.8054C105.347 81.3546 105.148 81.9678 105.039 82.6449C104.93 83.2983 104.925 83.8902 105.025 84.4205C105.124 84.9508 105.337 85.3722 105.664 85.6847C105.991 85.9972 106.441 86.1534 107.013 86.1534ZM118.216 88.1918C117.359 88.1918 116.627 87.9716 116.021 87.5312C115.415 87.0909 114.984 86.4517 114.728 85.6136C114.477 84.7756 114.449 83.7576 114.643 82.5597C114.847 81.3475 115.218 80.3248 115.758 79.4915C116.298 78.6534 116.942 78.0213 117.69 77.5952C118.443 77.1643 119.238 76.9489 120.076 76.9489C120.72 76.9489 121.229 77.0578 121.603 77.2756C121.982 77.4886 122.266 77.7467 122.456 78.0497C122.645 78.348 122.785 78.6297 122.875 78.8949H122.981L123.883 73.4545H126.461L124.047 88H121.518L121.809 86.2812H121.653C121.473 86.5464 121.234 86.8281 120.936 87.1264C120.637 87.42 120.266 87.6709 119.821 87.8793C119.376 88.0876 118.841 88.1918 118.216 88.1918ZM119.238 86.0824C119.788 86.0824 120.28 85.9356 120.716 85.642C121.156 85.3437 121.523 84.9295 121.816 84.3991C122.11 83.8688 122.316 83.2509 122.434 82.5455C122.553 81.84 122.553 81.2268 122.434 80.706C122.316 80.1851 122.086 79.7803 121.745 79.4915C121.404 79.2027 120.957 79.0582 120.403 79.0582C119.835 79.0582 119.335 79.2074 118.904 79.5057C118.478 79.804 118.128 80.2159 117.853 80.7415C117.579 81.267 117.385 81.8684 117.271 82.5455C117.157 83.2273 117.15 83.8357 117.25 84.3707C117.354 84.901 117.569 85.3201 117.896 85.6278C118.227 85.9309 118.675 86.0824 119.238 86.0824ZM131.586 88.2131C130.511 88.2131 129.616 87.9763 128.901 87.5028C128.191 87.0294 127.691 86.3641 127.402 85.5071C127.114 84.6501 127.061 83.6558 127.246 82.5241C127.431 81.4067 127.8 80.429 128.354 79.5909C128.913 78.7528 129.616 78.1042 130.463 77.6449C131.316 77.1809 132.27 76.9489 133.326 76.9489C134.4 76.9489 135.293 77.188 136.003 77.6662C136.713 78.1397 137.213 78.8049 137.502 79.6619C137.795 80.5189 137.85 81.518 137.665 82.6591C137.485 83.7718 137.114 84.7448 136.55 85.5781C135.991 86.4115 135.288 87.0601 134.441 87.5241C133.593 87.9834 132.641 88.2131 131.586 88.2131ZM131.799 86.1534C132.395 86.1534 132.918 85.9924 133.368 85.6705C133.823 85.3437 134.194 84.9058 134.483 84.3565C134.777 83.8026 134.98 83.187 135.094 82.5099C135.198 81.8565 135.201 81.2647 135.101 80.7344C135.002 80.1993 134.789 79.7756 134.462 79.4631C134.14 79.1458 133.693 78.9872 133.12 78.9872C132.523 78.9872 131.995 79.1529 131.536 79.4844C131.081 79.8111 130.71 80.2514 130.421 80.8054C130.132 81.3546 129.933 81.9678 129.824 82.6449C129.715 83.2983 129.711 83.8902 129.81 84.4205C129.909 84.9508 130.123 85.3722 130.449 85.6847C130.776 85.9972 131.226 86.1534 131.799 86.1534ZM132.615 75.6562L134.739 72.4105H137.253L134.533 75.6562H132.615ZM142.603 81.608L141.552 88H138.974L140.792 77.0909H143.256L142.944 78.9446H143.079C143.42 78.3338 143.898 77.8485 144.513 77.4886C145.129 77.1288 145.846 76.9489 146.665 76.9489C147.409 76.9489 148.034 77.1098 148.54 77.4318C149.047 77.7491 149.407 78.2154 149.62 78.831C149.833 79.4418 149.866 80.1828 149.719 81.054L148.555 88H145.984L147.07 81.4517C147.193 80.7273 147.101 80.1591 146.793 79.7472C146.49 79.3305 146.003 79.1222 145.33 79.1222C144.88 79.1222 144.466 79.2216 144.087 79.4205C143.709 79.6146 143.389 79.8963 143.129 80.2656C142.873 80.6349 142.698 81.0824 142.603 81.608Z" fill="black"/>
</svg>
