<svg width="254" height="14" viewBox="0 0 254 14" fill="none" xmlns="http://www.w3.org/2000/svg">
<path d="M11.108 5.28977H8.98295C8.92235 4.94129 8.81061 4.63258 8.64773 4.36364C8.48485 4.09091 8.2822 3.85985 8.03977 3.67045C7.79735 3.48106 7.52083 3.33901 7.21023 3.24432C6.90341 3.14583 6.57197 3.09659 6.21591 3.09659C5.58333 3.09659 5.02273 3.25568 4.53409 3.57386C4.04545 3.88826 3.66288 4.35038 3.38636 4.96023C3.10985 5.56629 2.97159 6.30682 2.97159 7.18182C2.97159 8.07197 3.10985 8.82197 3.38636 9.43182C3.66667 10.0379 4.04924 10.4962 4.53409 10.8068C5.02273 11.1136 5.58144 11.267 6.21023 11.267C6.55871 11.267 6.88447 11.2216 7.1875 11.1307C7.49432 11.036 7.76894 10.8977 8.01136 10.7159C8.25758 10.5341 8.46402 10.3106 8.63068 10.0455C8.80114 9.7803 8.91856 9.47727 8.98295 9.13636L11.108 9.14773C11.0284 9.70076 10.8561 10.2197 10.5909 10.7045C10.3295 11.1894 9.98674 11.6174 9.5625 11.9886C9.13826 12.3561 8.64205 12.6439 8.07386 12.8523C7.50568 13.0568 6.875 13.1591 6.18182 13.1591C5.15909 13.1591 4.24621 12.9223 3.44318 12.4489C2.64015 11.9754 2.00758 11.2917 1.54545 10.3977C1.08333 9.50379 0.852273 8.43182 0.852273 7.18182C0.852273 5.92803 1.08523 4.85606 1.55114 3.96591C2.01705 3.07197 2.65152 2.38826 3.45455 1.91477C4.25758 1.44129 5.16667 1.20455 6.18182 1.20455C6.82955 1.20455 7.43182 1.29545 7.98864 1.47727C8.54545 1.65909 9.04167 1.92614 9.47727 2.27841C9.91288 2.62689 10.2708 3.05492 10.5511 3.5625C10.8352 4.06629 11.0208 4.64205 11.108 5.28977ZM16.7543 13.1705C15.902 13.1705 15.1634 12.983 14.5384 12.608C13.9134 12.233 13.4285 11.7083 13.0838 11.0341C12.7429 10.3598 12.5724 9.57197 12.5724 8.67045C12.5724 7.76894 12.7429 6.97917 13.0838 6.30114C13.4285 5.62311 13.9134 5.09659 14.5384 4.72159C15.1634 4.34659 15.902 4.15909 16.7543 4.15909C17.6065 4.15909 18.3452 4.34659 18.9702 4.72159C19.5952 5.09659 20.0781 5.62311 20.419 6.30114C20.7637 6.97917 20.9361 7.76894 20.9361 8.67045C20.9361 9.57197 20.7637 10.3598 20.419 11.0341C20.0781 11.7083 19.5952 12.233 18.9702 12.608C18.3452 12.983 17.6065 13.1705 16.7543 13.1705ZM16.7656 11.5227C17.2277 11.5227 17.6141 11.3958 17.9247 11.142C18.2353 10.8845 18.4664 10.5398 18.6179 10.108C18.7732 9.67614 18.8509 9.19508 18.8509 8.66477C18.8509 8.13068 18.7732 7.64773 18.6179 7.21591C18.4664 6.7803 18.2353 6.43371 17.9247 6.17614C17.6141 5.91856 17.2277 5.78977 16.7656 5.78977C16.2921 5.78977 15.8982 5.91856 15.5838 6.17614C15.2732 6.43371 15.0402 6.7803 14.8849 7.21591C14.7334 7.64773 14.6577 8.13068 14.6577 8.66477C14.6577 9.19508 14.7334 9.67614 14.8849 10.108C15.0402 10.5398 15.2732 10.8845 15.5838 11.142C15.8982 11.3958 16.2921 11.5227 16.7656 11.5227ZM24.7386 1.36364V13H22.6818V1.36364H24.7386ZM30.7173 13.1705C29.8423 13.1705 29.0866 12.9886 28.4503 12.625C27.8177 12.2576 27.331 11.7386 26.9901 11.0682C26.6491 10.3939 26.4787 9.60038 26.4787 8.6875C26.4787 7.78977 26.6491 7.00189 26.9901 6.32386C27.3348 5.64205 27.8158 5.11174 28.4332 4.73295C29.0507 4.35038 29.776 4.15909 30.6094 4.15909C31.1473 4.15909 31.6548 4.24621 32.1321 4.42045C32.6132 4.59091 33.0374 4.85606 33.4048 5.21591C33.776 5.57576 34.0677 6.03409 34.2798 6.59091C34.492 7.14394 34.598 7.80303 34.598 8.56818V9.19886H27.4446V7.8125H32.6264C32.6226 7.41856 32.5374 7.06818 32.3707 6.76136C32.2041 6.45076 31.9711 6.20644 31.6719 6.02841C31.3764 5.85038 31.0317 5.76136 30.6378 5.76136C30.2173 5.76136 29.848 5.86364 29.5298 6.06818C29.2116 6.26894 28.9635 6.53409 28.7855 6.86364C28.6113 7.18939 28.5223 7.54735 28.5185 7.9375V9.14773C28.5185 9.6553 28.6113 10.0909 28.7969 10.4545C28.9825 10.8144 29.242 11.0909 29.5753 11.2841C29.9086 11.4735 30.2988 11.5682 30.7457 11.5682C31.045 11.5682 31.3158 11.5265 31.5582 11.4432C31.8007 11.3561 32.0109 11.2292 32.1889 11.0625C32.367 10.8958 32.5014 10.6894 32.5923 10.4432L34.5128 10.6591C34.3916 11.1667 34.1605 11.6098 33.8196 11.9886C33.4825 12.3636 33.0507 12.6553 32.5241 12.8636C31.9976 13.0682 31.3954 13.1705 30.7173 13.1705ZM40.1449 13.1705C39.2737 13.1705 38.5256 12.9792 37.9006 12.5966C37.2794 12.214 36.8002 11.6856 36.4631 11.0114C36.1297 10.3333 35.9631 9.55303 35.9631 8.67045C35.9631 7.78409 36.1335 7.00189 36.4744 6.32386C36.8153 5.64205 37.2964 5.11174 37.9176 4.73295C38.5426 4.35038 39.2813 4.15909 40.1335 4.15909C40.8419 4.15909 41.4688 4.28977 42.0142 4.55114C42.5634 4.80871 43.0009 5.17424 43.3267 5.64773C43.6525 6.11742 43.8381 6.66667 43.8835 7.29545H41.9176C41.8381 6.875 41.6487 6.52462 41.3494 6.24432C41.054 5.96023 40.6581 5.81818 40.1619 5.81818C39.7415 5.81818 39.3722 5.93182 39.054 6.15909C38.7358 6.38258 38.4877 6.70455 38.3097 7.125C38.1354 7.54545 38.0483 8.04924 38.0483 8.63636C38.0483 9.23106 38.1354 9.74242 38.3097 10.1705C38.4839 10.5947 38.7282 10.9223 39.0426 11.1534C39.3608 11.3807 39.7339 11.4943 40.1619 11.4943C40.465 11.4943 40.7358 11.4375 40.9744 11.3239C41.2169 11.2064 41.4195 11.0379 41.5824 10.8182C41.7453 10.5985 41.857 10.3314 41.9176 10.017H43.8835C43.8343 10.6345 43.6525 11.1818 43.3381 11.6591C43.0237 12.1326 42.5956 12.5038 42.054 12.7727C41.5123 13.0379 40.8759 13.1705 40.1449 13.1705ZM49.3793 13.1705C48.508 13.1705 47.7599 12.9792 47.1349 12.5966C46.5137 12.214 46.0346 11.6856 45.6974 11.0114C45.3641 10.3333 45.1974 9.55303 45.1974 8.67045C45.1974 7.78409 45.3679 7.00189 45.7088 6.32386C46.0497 5.64205 46.5308 5.11174 47.152 4.73295C47.777 4.35038 48.5156 4.15909 49.3679 4.15909C50.0762 4.15909 50.7031 4.28977 51.2486 4.55114C51.7978 4.80871 52.2353 5.17424 52.5611 5.64773C52.8868 6.11742 53.0724 6.66667 53.1179 7.29545H51.152C51.0724 6.875 50.883 6.52462 50.5838 6.24432C50.2884 5.96023 49.8925 5.81818 49.3963 5.81818C48.9759 5.81818 48.6065 5.93182 48.2884 6.15909C47.9702 6.38258 47.7221 6.70455 47.544 7.125C47.3698 7.54545 47.2827 8.04924 47.2827 8.63636C47.2827 9.23106 47.3698 9.74242 47.544 10.1705C47.7183 10.5947 47.9626 10.9223 48.277 11.1534C48.5952 11.3807 48.9683 11.4943 49.3963 11.4943C49.6993 11.4943 49.9702 11.4375 50.2088 11.3239C50.4512 11.2064 50.6539 11.0379 50.8168 10.8182C50.9796 10.5985 51.0914 10.3314 51.152 10.017H53.1179C53.0687 10.6345 52.8868 11.1818 52.5724 11.6591C52.258 12.1326 51.83 12.5038 51.2884 12.7727C50.7467 13.0379 50.1103 13.1705 49.3793 13.1705ZM54.8068 13V4.27273H56.8636V13H54.8068ZM55.8409 3.03409C55.5152 3.03409 55.2348 2.92614 55 2.71023C54.7652 2.49053 54.6477 2.22727 54.6477 1.92045C54.6477 1.60985 54.7652 1.34659 55 1.13068C55.2348 0.910984 55.5152 0.801136 55.8409 0.801136C56.1705 0.801136 56.4508 0.910984 56.6818 1.13068C56.9167 1.34659 57.0341 1.60985 57.0341 1.92045C57.0341 2.22727 56.9167 2.49053 56.6818 2.71023C56.4508 2.92614 56.1705 3.03409 55.8409 3.03409ZM62.7855 13.1705C61.9332 13.1705 61.1946 12.983 60.5696 12.608C59.9446 12.233 59.4598 11.7083 59.1151 11.0341C58.7741 10.3598 58.6037 9.57197 58.6037 8.67045C58.6037 7.76894 58.7741 6.97917 59.1151 6.30114C59.4598 5.62311 59.9446 5.09659 60.5696 4.72159C61.1946 4.34659 61.9332 4.15909 62.7855 4.15909C63.6378 4.15909 64.3764 4.34659 65.0014 4.72159C65.6264 5.09659 66.1094 5.62311 66.4503 6.30114C66.795 6.97917 66.9673 7.76894 66.9673 8.67045C66.9673 9.57197 66.795 10.3598 66.4503 11.0341C66.1094 11.7083 65.6264 12.233 65.0014 12.608C64.3764 12.983 63.6378 13.1705 62.7855 13.1705ZM62.7969 11.5227C63.259 11.5227 63.6454 11.3958 63.956 11.142C64.2666 10.8845 64.4976 10.5398 64.6491 10.108C64.8045 9.67614 64.8821 9.19508 64.8821 8.66477C64.8821 8.13068 64.8045 7.64773 64.6491 7.21591C64.4976 6.7803 64.2666 6.43371 63.956 6.17614C63.6454 5.91856 63.259 5.78977 62.7969 5.78977C62.3234 5.78977 61.9295 5.91856 61.6151 6.17614C61.3045 6.43371 61.0715 6.7803 60.9162 7.21591C60.7647 7.64773 60.6889 8.13068 60.6889 8.66477C60.6889 9.19508 60.7647 9.67614 60.9162 10.108C61.0715 10.5398 61.3045 10.8845 61.6151 11.142C61.9295 11.3958 62.3234 11.5227 62.7969 11.5227ZM70.7699 7.88636V13H68.7131V4.27273H70.679V5.75568H70.7812C70.982 5.26705 71.3021 4.87879 71.7415 4.59091C72.1847 4.30303 72.732 4.15909 73.3835 4.15909C73.9858 4.15909 74.5104 4.28788 74.9574 4.54545C75.4081 4.80303 75.7566 5.17614 76.0028 5.66477C76.2528 6.15341 76.3759 6.74621 76.3722 7.44318V13H74.3153V7.76136C74.3153 7.17803 74.1638 6.72159 73.8608 6.39205C73.5616 6.0625 73.1468 5.89773 72.6165 5.89773C72.2566 5.89773 71.9366 5.97727 71.6562 6.13636C71.3797 6.29167 71.1619 6.51705 71.0028 6.8125C70.8475 7.10795 70.7699 7.46591 70.7699 7.88636ZM80.9744 13.1761C80.4214 13.1761 79.9233 13.0777 79.4801 12.8807C79.0407 12.6799 78.6922 12.3845 78.4347 11.9943C78.1809 11.6042 78.054 11.1231 78.054 10.5511C78.054 10.0587 78.1449 9.65152 78.3267 9.32955C78.5085 9.00758 78.7566 8.75 79.071 8.55682C79.3854 8.36364 79.7396 8.2178 80.1335 8.11932C80.5313 8.01705 80.9422 7.94318 81.3665 7.89773C81.8778 7.8447 82.2926 7.79735 82.6108 7.75568C82.929 7.71023 83.16 7.64205 83.304 7.55114C83.4517 7.45644 83.5256 7.31061 83.5256 7.11364V7.07955C83.5256 6.65152 83.3987 6.32008 83.1449 6.08523C82.8911 5.85038 82.5256 5.73295 82.0483 5.73295C81.5445 5.73295 81.1449 5.8428 80.8494 6.0625C80.5578 6.2822 80.3608 6.54167 80.2585 6.84091L78.3381 6.56818C78.4896 6.03788 78.7396 5.5947 79.0881 5.23864C79.4366 4.87879 79.8627 4.60985 80.3665 4.43182C80.8703 4.25 81.4271 4.15909 82.0369 4.15909C82.4574 4.15909 82.8759 4.20833 83.2926 4.30682C83.7093 4.4053 84.09 4.56818 84.4347 4.79545C84.7794 5.01894 85.0559 5.32386 85.2642 5.71023C85.4763 6.09659 85.5824 6.57955 85.5824 7.15909V13H83.6051V11.8011H83.5369C83.4119 12.0436 83.2358 12.2708 83.0085 12.483C82.785 12.6913 82.5028 12.8598 82.1619 12.9886C81.8248 13.1136 81.429 13.1761 80.9744 13.1761ZM81.5085 11.6648C81.9214 11.6648 82.2794 11.5833 82.5824 11.4205C82.8854 11.2538 83.1184 11.0341 83.2812 10.7614C83.4479 10.4886 83.5312 10.1913 83.5312 9.86932V8.84091C83.4669 8.89394 83.357 8.94318 83.2017 8.98864C83.0502 9.03409 82.8797 9.07386 82.6903 9.10795C82.5009 9.14205 82.3134 9.17235 82.1278 9.19886C81.9422 9.22538 81.7813 9.24811 81.6449 9.26705C81.3381 9.30871 81.0634 9.37689 80.821 9.47159C80.5786 9.56629 80.3873 9.69886 80.2472 9.86932C80.107 10.036 80.0369 10.2519 80.0369 10.517C80.0369 10.8958 80.1752 11.1818 80.4517 11.375C80.7282 11.5682 81.0805 11.6648 81.5085 11.6648ZM95.9773 4.27273V5.86364H90.9602V4.27273H95.9773ZM92.1989 2.18182H94.2557V10.375C94.2557 10.6515 94.2973 10.8636 94.3807 11.0114C94.4678 11.1553 94.5814 11.2538 94.7216 11.3068C94.8617 11.3598 95.017 11.3864 95.1875 11.3864C95.3163 11.3864 95.4337 11.3769 95.5398 11.358C95.6496 11.339 95.733 11.322 95.7898 11.3068L96.1364 12.9148C96.0265 12.9527 95.8693 12.9943 95.6648 13.0398C95.464 13.0852 95.2178 13.1117 94.9261 13.1193C94.411 13.1345 93.947 13.0568 93.5341 12.8864C93.1212 12.7121 92.7936 12.4432 92.5511 12.0795C92.3125 11.7159 92.1951 11.2614 92.1989 10.7159V2.18182ZM103.26 9.32955V4.27273H105.317V13H103.322V11.4489H103.232C103.035 11.9375 102.711 12.3371 102.26 12.6477C101.813 12.9583 101.262 13.1136 100.607 13.1136C100.035 13.1136 99.5289 12.9867 99.0895 12.733C98.6539 12.4754 98.313 12.1023 98.0668 11.6136C97.8205 11.1212 97.6974 10.5265 97.6974 9.82955V4.27273H99.7543V9.51136C99.7543 10.0644 99.9058 10.5038 100.209 10.8295C100.512 11.1553 100.91 11.3182 101.402 11.3182C101.705 11.3182 101.999 11.2443 102.283 11.0966C102.567 10.9489 102.8 10.7292 102.982 10.4375C103.167 10.142 103.26 9.77273 103.26 9.32955ZM114.33 6.57955L112.455 6.78409C112.402 6.5947 112.309 6.41667 112.176 6.25C112.047 6.08333 111.873 5.94886 111.653 5.84659C111.434 5.74432 111.165 5.69318 110.847 5.69318C110.419 5.69318 110.059 5.78598 109.767 5.97159C109.479 6.1572 109.337 6.39773 109.341 6.69318C109.337 6.94697 109.43 7.15341 109.619 7.3125C109.813 7.47159 110.131 7.60227 110.574 7.70455L112.062 8.02273C112.888 8.20076 113.502 8.48295 113.903 8.86932C114.309 9.25568 114.513 9.76136 114.517 10.3864C114.513 10.9356 114.352 11.4205 114.034 11.8409C113.72 12.2576 113.282 12.5833 112.722 12.8182C112.161 13.053 111.517 13.1705 110.79 13.1705C109.722 13.1705 108.862 12.947 108.21 12.5C107.559 12.0492 107.17 11.4223 107.045 10.6193L109.051 10.4261C109.142 10.8201 109.335 11.1174 109.631 11.3182C109.926 11.5189 110.311 11.6193 110.784 11.6193C111.273 11.6193 111.665 11.5189 111.96 11.3182C112.259 11.1174 112.409 10.8693 112.409 10.5739C112.409 10.3239 112.313 10.1174 112.119 9.95455C111.93 9.79167 111.634 9.66667 111.233 9.57955L109.744 9.26705C108.907 9.0928 108.288 8.79924 107.886 8.38636C107.485 7.9697 107.286 7.44318 107.29 6.80682C107.286 6.26894 107.432 5.80303 107.727 5.40909C108.027 5.01136 108.441 4.70455 108.972 4.48864C109.506 4.26894 110.121 4.15909 110.818 4.15909C111.841 4.15909 112.646 4.37689 113.233 4.8125C113.824 5.24811 114.189 5.83712 114.33 6.57955ZM123.989 13.1705C123.117 13.1705 122.369 12.9792 121.744 12.5966C121.123 12.214 120.644 11.6856 120.307 11.0114C119.973 10.3333 119.807 9.55303 119.807 8.67045C119.807 7.78409 119.977 7.00189 120.318 6.32386C120.659 5.64205 121.14 5.11174 121.761 4.73295C122.386 4.35038 123.125 4.15909 123.977 4.15909C124.686 4.15909 125.313 4.28977 125.858 4.55114C126.407 4.80871 126.845 5.17424 127.17 5.64773C127.496 6.11742 127.682 6.66667 127.727 7.29545H125.761C125.682 6.875 125.492 6.52462 125.193 6.24432C124.898 5.96023 124.502 5.81818 124.006 5.81818C123.585 5.81818 123.216 5.93182 122.898 6.15909C122.58 6.38258 122.331 6.70455 122.153 7.125C121.979 7.54545 121.892 8.04924 121.892 8.63636C121.892 9.23106 121.979 9.74242 122.153 10.1705C122.328 10.5947 122.572 10.9223 122.886 11.1534C123.205 11.3807 123.578 11.4943 124.006 11.4943C124.309 11.4943 124.58 11.4375 124.818 11.3239C125.061 11.2064 125.263 11.0379 125.426 10.8182C125.589 10.5985 125.701 10.3314 125.761 10.017H127.727C127.678 10.6345 127.496 11.1818 127.182 11.6591C126.867 12.1326 126.439 12.5038 125.898 12.7727C125.356 13.0379 124.72 13.1705 123.989 13.1705ZM131.928 13.1761C131.375 13.1761 130.876 13.0777 130.433 12.8807C129.994 12.6799 129.645 12.3845 129.388 11.9943C129.134 11.6042 129.007 11.1231 129.007 10.5511C129.007 10.0587 129.098 9.65152 129.28 9.32955C129.462 9.00758 129.71 8.75 130.024 8.55682C130.339 8.36364 130.693 8.2178 131.087 8.11932C131.484 8.01705 131.895 7.94318 132.32 7.89773C132.831 7.8447 133.246 7.79735 133.564 7.75568C133.882 7.71023 134.113 7.64205 134.257 7.55114C134.405 7.45644 134.479 7.31061 134.479 7.11364V7.07955C134.479 6.65152 134.352 6.32008 134.098 6.08523C133.844 5.85038 133.479 5.73295 133.001 5.73295C132.498 5.73295 132.098 5.8428 131.803 6.0625C131.511 6.2822 131.314 6.54167 131.212 6.84091L129.291 6.56818C129.443 6.03788 129.693 5.5947 130.041 5.23864C130.39 4.87879 130.816 4.60985 131.32 4.43182C131.823 4.25 132.38 4.15909 132.99 4.15909C133.411 4.15909 133.829 4.20833 134.246 4.30682C134.662 4.4053 135.043 4.56818 135.388 4.79545C135.732 5.01894 136.009 5.32386 136.217 5.71023C136.429 6.09659 136.536 6.57955 136.536 7.15909V13H134.558V11.8011H134.49C134.365 12.0436 134.189 12.2708 133.962 12.483C133.738 12.6913 133.456 12.8598 133.115 12.9886C132.778 13.1136 132.382 13.1761 131.928 13.1761ZM132.462 11.6648C132.875 11.6648 133.232 11.5833 133.536 11.4205C133.839 11.2538 134.071 11.0341 134.234 10.7614C134.401 10.4886 134.484 10.1913 134.484 9.86932V8.84091C134.42 8.89394 134.31 8.94318 134.155 8.98864C134.003 9.03409 133.833 9.07386 133.643 9.10795C133.454 9.14205 133.267 9.17235 133.081 9.19886C132.895 9.22538 132.734 9.24811 132.598 9.26705C132.291 9.30871 132.017 9.37689 131.774 9.47159C131.532 9.56629 131.34 9.69886 131.2 9.86932C131.06 10.036 130.99 10.2519 130.99 10.517C130.99 10.8958 131.128 11.1818 131.405 11.375C131.681 11.5682 132.034 11.6648 132.462 11.6648ZM138.604 13V4.27273H140.57V5.75568H140.672C140.854 5.25568 141.155 4.86553 141.575 4.58523C141.996 4.30114 142.498 4.15909 143.081 4.15909C143.672 4.15909 144.17 4.30303 144.575 4.59091C144.984 4.875 145.272 5.26326 145.439 5.75568H145.53C145.723 5.27083 146.049 4.88447 146.507 4.59659C146.969 4.30492 147.517 4.15909 148.149 4.15909C148.952 4.15909 149.607 4.41288 150.115 4.92045C150.623 5.42803 150.876 6.16856 150.876 7.14205V13H148.814V7.46023C148.814 6.91856 148.67 6.52273 148.382 6.27273C148.094 6.01894 147.742 5.89205 147.325 5.89205C146.829 5.89205 146.441 6.04735 146.161 6.35795C145.884 6.66477 145.746 7.06439 145.746 7.55682V13H143.729V7.375C143.729 6.92424 143.592 6.56439 143.32 6.29545C143.051 6.02651 142.698 5.89205 142.263 5.89205C141.967 5.89205 141.698 5.9678 141.456 6.11932C141.214 6.26705 141.02 6.47727 140.876 6.75C140.732 7.01894 140.661 7.33333 140.661 7.69318V13H138.604ZM152.963 13V4.27273H155.02V13H152.963ZM153.997 3.03409C153.671 3.03409 153.391 2.92614 153.156 2.71023C152.921 2.49053 152.804 2.22727 152.804 1.92045C152.804 1.60985 152.921 1.34659 153.156 1.13068C153.391 0.910984 153.671 0.801136 153.997 0.801136C154.327 0.801136 154.607 0.910984 154.838 1.13068C155.073 1.34659 155.19 1.60985 155.19 1.92045C155.19 2.22727 155.073 2.49053 154.838 2.71023C154.607 2.92614 154.327 3.03409 153.997 3.03409ZM164.033 6.57955L162.158 6.78409C162.105 6.5947 162.012 6.41667 161.879 6.25C161.75 6.08333 161.576 5.94886 161.357 5.84659C161.137 5.74432 160.868 5.69318 160.55 5.69318C160.122 5.69318 159.762 5.78598 159.47 5.97159C159.182 6.1572 159.04 6.39773 159.044 6.69318C159.04 6.94697 159.133 7.15341 159.322 7.3125C159.516 7.47159 159.834 7.60227 160.277 7.70455L161.766 8.02273C162.591 8.20076 163.205 8.48295 163.607 8.86932C164.012 9.25568 164.216 9.76136 164.22 10.3864C164.216 10.9356 164.055 11.4205 163.737 11.8409C163.423 12.2576 162.985 12.5833 162.425 12.8182C161.864 13.053 161.22 13.1705 160.493 13.1705C159.425 13.1705 158.565 12.947 157.913 12.5C157.262 12.0492 156.874 11.4223 156.749 10.6193L158.754 10.4261C158.845 10.8201 159.038 11.1174 159.334 11.3182C159.629 11.5189 160.014 11.6193 160.487 11.6193C160.976 11.6193 161.368 11.5189 161.663 11.3182C161.963 11.1174 162.112 10.8693 162.112 10.5739C162.112 10.3239 162.016 10.1174 161.822 9.95455C161.633 9.79167 161.338 9.66667 160.936 9.57955L159.447 9.26705C158.61 9.0928 157.991 8.79924 157.589 8.38636C157.188 7.9697 156.989 7.44318 156.993 6.80682C156.989 6.26894 157.135 5.80303 157.43 5.40909C157.73 5.01136 158.144 4.70455 158.675 4.48864C159.209 4.26894 159.824 4.15909 160.521 4.15909C161.544 4.15909 162.349 4.37689 162.936 4.8125C163.527 5.24811 163.893 5.83712 164.033 6.57955ZM168.428 13.1761C167.875 13.1761 167.376 13.0777 166.933 12.8807C166.494 12.6799 166.145 12.3845 165.888 11.9943C165.634 11.6042 165.507 11.1231 165.507 10.5511C165.507 10.0587 165.598 9.65152 165.78 9.32955C165.962 9.00758 166.21 8.75 166.524 8.55682C166.839 8.36364 167.193 8.2178 167.587 8.11932C167.984 8.01705 168.395 7.94318 168.82 7.89773C169.331 7.8447 169.746 7.79735 170.064 7.75568C170.382 7.71023 170.613 7.64205 170.757 7.55114C170.905 7.45644 170.979 7.31061 170.979 7.11364V7.07955C170.979 6.65152 170.852 6.32008 170.598 6.08523C170.344 5.85038 169.979 5.73295 169.501 5.73295C168.998 5.73295 168.598 5.8428 168.303 6.0625C168.011 6.2822 167.814 6.54167 167.712 6.84091L165.791 6.56818C165.943 6.03788 166.193 5.5947 166.541 5.23864C166.89 4.87879 167.316 4.60985 167.82 4.43182C168.323 4.25 168.88 4.15909 169.49 4.15909C169.911 4.15909 170.329 4.20833 170.746 4.30682C171.162 4.4053 171.543 4.56818 171.888 4.79545C172.232 5.01894 172.509 5.32386 172.717 5.71023C172.929 6.09659 173.036 6.57955 173.036 7.15909V13H171.058V11.8011H170.99C170.865 12.0436 170.689 12.2708 170.462 12.483C170.238 12.6913 169.956 12.8598 169.615 12.9886C169.278 13.1136 168.882 13.1761 168.428 13.1761ZM168.962 11.6648C169.375 11.6648 169.732 11.5833 170.036 11.4205C170.339 11.2538 170.571 11.0341 170.734 10.7614C170.901 10.4886 170.984 10.1913 170.984 9.86932V8.84091C170.92 8.89394 170.81 8.94318 170.655 8.98864C170.503 9.03409 170.333 9.07386 170.143 9.10795C169.954 9.14205 169.767 9.17235 169.581 9.19886C169.395 9.22538 169.234 9.24811 169.098 9.26705C168.791 9.30871 168.517 9.37689 168.274 9.47159C168.032 9.56629 167.84 9.69886 167.7 9.86932C167.56 10.036 167.49 10.2519 167.49 10.517C167.49 10.8958 167.628 11.1818 167.905 11.375C168.181 11.5682 168.534 11.6648 168.962 11.6648ZM182.001 6.57955L180.126 6.78409C180.073 6.5947 179.981 6.41667 179.848 6.25C179.719 6.08333 179.545 5.94886 179.325 5.84659C179.106 5.74432 178.837 5.69318 178.518 5.69318C178.09 5.69318 177.731 5.78598 177.439 5.97159C177.151 6.1572 177.009 6.39773 177.013 6.69318C177.009 6.94697 177.102 7.15341 177.291 7.3125C177.484 7.47159 177.803 7.60227 178.246 7.70455L179.734 8.02273C180.56 8.20076 181.174 8.48295 181.575 8.86932C181.981 9.25568 182.185 9.76136 182.189 10.3864C182.185 10.9356 182.024 11.4205 181.706 11.8409C181.392 12.2576 180.954 12.5833 180.393 12.8182C179.833 13.053 179.189 13.1705 178.462 13.1705C177.393 13.1705 176.534 12.947 175.882 12.5C175.231 12.0492 174.842 11.4223 174.717 10.6193L176.723 10.4261C176.814 10.8201 177.007 11.1174 177.303 11.3182C177.598 11.5189 177.982 11.6193 178.456 11.6193C178.945 11.6193 179.337 11.5189 179.632 11.3182C179.931 11.1174 180.081 10.8693 180.081 10.5739C180.081 10.3239 179.984 10.1174 179.791 9.95455C179.602 9.79167 179.306 9.66667 178.905 9.57955L177.416 9.26705C176.579 9.0928 175.96 8.79924 175.558 8.38636C175.157 7.9697 174.958 7.44318 174.962 6.80682C174.958 6.26894 175.104 5.80303 175.399 5.40909C175.698 5.01136 176.113 4.70455 176.643 4.48864C177.178 4.26894 177.793 4.15909 178.49 4.15909C179.513 4.15909 180.318 4.37689 180.905 4.8125C181.496 5.24811 181.861 5.83712 182.001 6.57955ZM192.274 4.27273V5.86364H187.115V4.27273H192.274ZM188.405 13V3.44886C188.405 2.86174 188.526 2.37311 188.768 1.98295C189.015 1.5928 189.344 1.30114 189.757 1.10795C190.17 0.914772 190.628 0.818181 191.132 0.818181C191.488 0.818181 191.804 0.84659 192.081 0.903409C192.357 0.960227 192.562 1.01136 192.695 1.05682L192.286 2.64773C192.198 2.62121 192.089 2.5947 191.956 2.56818C191.823 2.53788 191.676 2.52273 191.513 2.52273C191.13 2.52273 190.859 2.61553 190.7 2.80114C190.545 2.98295 190.467 3.24432 190.467 3.58523V13H188.405ZM196.099 13.1761C195.546 13.1761 195.048 13.0777 194.605 12.8807C194.166 12.6799 193.817 12.3845 193.56 11.9943C193.306 11.6042 193.179 11.1231 193.179 10.5511C193.179 10.0587 193.27 9.65152 193.452 9.32955C193.634 9.00758 193.882 8.75 194.196 8.55682C194.51 8.36364 194.865 8.2178 195.259 8.11932C195.656 8.01705 196.067 7.94318 196.491 7.89773C197.003 7.8447 197.418 7.79735 197.736 7.75568C198.054 7.71023 198.285 7.64205 198.429 7.55114C198.577 7.45644 198.651 7.31061 198.651 7.11364V7.07955C198.651 6.65152 198.524 6.32008 198.27 6.08523C198.016 5.85038 197.651 5.73295 197.173 5.73295C196.67 5.73295 196.27 5.8428 195.974 6.0625C195.683 6.2822 195.486 6.54167 195.384 6.84091L193.463 6.56818C193.615 6.03788 193.865 5.5947 194.213 5.23864C194.562 4.87879 194.988 4.60985 195.491 4.43182C195.995 4.25 196.552 4.15909 197.162 4.15909C197.582 4.15909 198.001 4.20833 198.418 4.30682C198.834 4.4053 199.215 4.56818 199.56 4.79545C199.904 5.01894 200.181 5.32386 200.389 5.71023C200.601 6.09659 200.707 6.57955 200.707 7.15909V13H198.73V11.8011H198.662C198.537 12.0436 198.361 12.2708 198.134 12.483C197.91 12.6913 197.628 12.8598 197.287 12.9886C196.95 13.1136 196.554 13.1761 196.099 13.1761ZM196.634 11.6648C197.046 11.6648 197.404 11.5833 197.707 11.4205C198.01 11.2538 198.243 11.0341 198.406 10.7614C198.573 10.4886 198.656 10.1913 198.656 9.86932V8.84091C198.592 8.89394 198.482 8.94318 198.327 8.98864C198.175 9.03409 198.005 9.07386 197.815 9.10795C197.626 9.14205 197.438 9.17235 197.253 9.19886C197.067 9.22538 196.906 9.24811 196.77 9.26705C196.463 9.30871 196.188 9.37689 195.946 9.47159C195.704 9.56629 195.512 9.69886 195.372 9.86932C195.232 10.036 195.162 10.2519 195.162 10.517C195.162 10.8958 195.3 11.1818 195.577 11.375C195.853 11.5682 196.205 11.6648 196.634 11.6648ZM210.259 4.27273L207.151 13H204.878L201.77 4.27273H203.963L205.969 10.7557H206.06L208.071 4.27273H210.259ZM215.192 13.1705C214.339 13.1705 213.601 12.983 212.976 12.608C212.351 12.233 211.866 11.7083 211.521 11.0341C211.18 10.3598 211.01 9.57197 211.01 8.67045C211.01 7.76894 211.18 6.97917 211.521 6.30114C211.866 5.62311 212.351 5.09659 212.976 4.72159C213.601 4.34659 214.339 4.15909 215.192 4.15909C216.044 4.15909 216.783 4.34659 217.408 4.72159C218.033 5.09659 218.516 5.62311 218.857 6.30114C219.201 6.97917 219.374 7.76894 219.374 8.67045C219.374 9.57197 219.201 10.3598 218.857 11.0341C218.516 11.7083 218.033 12.233 217.408 12.608C216.783 12.983 216.044 13.1705 215.192 13.1705ZM215.203 11.5227C215.665 11.5227 216.052 11.3958 216.362 11.142C216.673 10.8845 216.904 10.5398 217.055 10.108C217.211 9.67614 217.288 9.19508 217.288 8.66477C217.288 8.13068 217.211 7.64773 217.055 7.21591C216.904 6.7803 216.673 6.43371 216.362 6.17614C216.052 5.91856 215.665 5.78977 215.203 5.78977C214.73 5.78977 214.336 5.91856 214.021 6.17614C213.711 6.43371 213.478 6.7803 213.322 7.21591C213.171 7.64773 213.095 8.13068 213.095 8.66477C213.095 9.19508 213.171 9.67614 213.322 10.108C213.478 10.5398 213.711 10.8845 214.021 11.142C214.336 11.3958 214.73 11.5227 215.203 11.5227ZM221.119 13V4.27273H223.114V5.72727H223.205C223.364 5.22348 223.636 4.83523 224.023 4.5625C224.413 4.28598 224.858 4.14773 225.358 4.14773C225.472 4.14773 225.598 4.15341 225.739 4.16477C225.883 4.17235 226.002 4.18561 226.097 4.20455V6.09659C226.009 6.06629 225.871 6.03977 225.682 6.01705C225.496 5.99053 225.316 5.97727 225.142 5.97727C224.767 5.97727 224.43 6.05871 224.131 6.22159C223.835 6.38068 223.602 6.60227 223.432 6.88636C223.261 7.17045 223.176 7.49811 223.176 7.86932V13H221.119ZM227.463 13V4.27273H229.52V13H227.463ZM228.497 3.03409C228.171 3.03409 227.891 2.92614 227.656 2.71023C227.421 2.49053 227.304 2.22727 227.304 1.92045C227.304 1.60985 227.421 1.34659 227.656 1.13068C227.891 0.910984 228.171 0.801136 228.497 0.801136C228.827 0.801136 229.107 0.910984 229.338 1.13068C229.573 1.34659 229.69 1.60985 229.69 1.92045C229.69 2.22727 229.573 2.49053 229.338 2.71023C229.107 2.92614 228.827 3.03409 228.497 3.03409ZM235.993 4.27273V5.86364H230.976V4.27273H235.993ZM232.214 2.18182H234.271V10.375C234.271 10.6515 234.313 10.8636 234.396 11.0114C234.483 11.1553 234.597 11.2538 234.737 11.3068C234.877 11.3598 235.033 11.3864 235.203 11.3864C235.332 11.3864 235.449 11.3769 235.555 11.358C235.665 11.339 235.749 11.322 235.805 11.3068L236.152 12.9148C236.042 12.9527 235.885 12.9943 235.68 13.0398C235.48 13.0852 235.233 13.1117 234.942 13.1193C234.427 13.1345 233.963 13.0568 233.55 12.8864C233.137 12.7121 232.809 12.4432 232.567 12.0795C232.328 11.7159 232.211 11.2614 232.214 10.7159V2.18182ZM240.224 13.1761C239.671 13.1761 239.173 13.0777 238.73 12.8807C238.291 12.6799 237.942 12.3845 237.685 11.9943C237.431 11.6042 237.304 11.1231 237.304 10.5511C237.304 10.0587 237.395 9.65152 237.577 9.32955C237.759 9.00758 238.007 8.75 238.321 8.55682C238.635 8.36364 238.99 8.2178 239.384 8.11932C239.781 8.01705 240.192 7.94318 240.616 7.89773C241.128 7.8447 241.543 7.79735 241.861 7.75568C242.179 7.71023 242.41 7.64205 242.554 7.55114C242.702 7.45644 242.776 7.31061 242.776 7.11364V7.07955C242.776 6.65152 242.649 6.32008 242.395 6.08523C242.141 5.85038 241.776 5.73295 241.298 5.73295C240.795 5.73295 240.395 5.8428 240.099 6.0625C239.808 6.2822 239.611 6.54167 239.509 6.84091L237.588 6.56818C237.74 6.03788 237.99 5.5947 238.338 5.23864C238.687 4.87879 239.113 4.60985 239.616 4.43182C240.12 4.25 240.677 4.15909 241.287 4.15909C241.707 4.15909 242.126 4.20833 242.543 4.30682C242.959 4.4053 243.34 4.56818 243.685 4.79545C244.029 5.01894 244.306 5.32386 244.514 5.71023C244.726 6.09659 244.832 6.57955 244.832 7.15909V13H242.855V11.8011H242.787C242.662 12.0436 242.486 12.2708 242.259 12.483C242.035 12.6913 241.753 12.8598 241.412 12.9886C241.075 13.1136 240.679 13.1761 240.224 13.1761ZM240.759 11.6648C241.171 11.6648 241.529 11.5833 241.832 11.4205C242.135 11.2538 242.368 11.0341 242.531 10.7614C242.698 10.4886 242.781 10.1913 242.781 9.86932V8.84091C242.717 8.89394 242.607 8.94318 242.452 8.98864C242.3 9.03409 242.13 9.07386 241.94 9.10795C241.751 9.14205 241.563 9.17235 241.378 9.19886C241.192 9.22538 241.031 9.24811 240.895 9.26705C240.588 9.30871 240.313 9.37689 240.071 9.47159C239.829 9.56629 239.637 9.69886 239.497 9.86932C239.357 10.036 239.287 10.2519 239.287 10.517C239.287 10.8958 239.425 11.1818 239.702 11.375C239.978 11.5682 240.33 11.6648 240.759 11.6648ZM253.798 6.57955L251.923 6.78409C251.87 6.5947 251.777 6.41667 251.645 6.25C251.516 6.08333 251.342 5.94886 251.122 5.84659C250.902 5.74432 250.634 5.69318 250.315 5.69318C249.887 5.69318 249.527 5.78598 249.236 5.97159C248.948 6.1572 248.806 6.39773 248.81 6.69318C248.806 6.94697 248.899 7.15341 249.088 7.3125C249.281 7.47159 249.599 7.60227 250.043 7.70455L251.531 8.02273C252.357 8.20076 252.971 8.48295 253.372 8.86932C253.777 9.25568 253.982 9.76136 253.986 10.3864C253.982 10.9356 253.821 11.4205 253.503 11.8409C253.188 12.2576 252.751 12.5833 252.19 12.8182C251.63 13.053 250.986 13.1705 250.259 13.1705C249.19 13.1705 248.33 12.947 247.679 12.5C247.027 12.0492 246.639 11.4223 246.514 10.6193L248.52 10.4261C248.611 10.8201 248.804 11.1174 249.099 11.3182C249.395 11.5189 249.779 11.6193 250.253 11.6193C250.741 11.6193 251.134 11.5189 251.429 11.3182C251.728 11.1174 251.878 10.8693 251.878 10.5739C251.878 10.3239 251.781 10.1174 251.588 9.95455C251.399 9.79167 251.103 9.66667 250.702 9.57955L249.213 9.26705C248.376 9.0928 247.757 8.79924 247.355 8.38636C246.954 7.9697 246.755 7.44318 246.759 6.80682C246.755 6.26894 246.901 5.80303 247.196 5.40909C247.495 5.01136 247.91 4.70455 248.44 4.48864C248.974 4.26894 249.59 4.15909 250.287 4.15909C251.31 4.15909 252.115 4.37689 252.702 4.8125C253.293 5.24811 253.658 5.83712 253.798 6.57955Z" fill="black"/>
</svg>
